<?xml version="1.0" encoding="utf-8"?>
<!-- Generator: Adobe Illustrator 27.5.0, SVG Export Plug-In . SVG Version: 6.00 Build 0)  -->
<svg version="1.1" xmlns="http://www.w3.org/2000/svg" xmlns:xlink="http://www.w3.org/1999/xlink" x="0px" y="0px"
	 viewBox="0 0 500 500" style="enable-background:new 0 0 500 500;" xml:space="preserve">
<g id="BACKGROUND">
	<rect style="fill:#FFFFFF;" width="500" height="500"/>
</g>
<g id="OBJECTS">
	<g>
		<g>
			<path style="fill:#DBDAF2;" d="M256.16,93.385c32.929-39.484,114.507-27.087,117.346,42.509
				c78.335-6.56,110.266,53.133,58.755,104.643c18.941,9.463,20.493,38.578-6.409,53.066c37.767,50.629,0.517,109.677-77.059,88.083
				c-8.062,28.492-50.291,40.91-76.001,18.403c-22.457,39.75-117.277,42.51-132.847-18.403
				C68.867,395.776,6.338,320.162,67.47,259.029c-21.738-21.738-8.832-66.671,21.749-69.257
				c-16.012-53.491,26.536-112.08,94.639-87.832C198.692,74.243,240.165,73.726,256.16,93.385z"/>
			<g>
				<defs>
					<path id="SVGID_1_" d="M256.16,93.385c32.929-39.484,114.507-27.087,117.346,42.509c78.335-6.56,110.266,53.133,58.755,104.643
						c18.941,9.463,20.493,38.578-6.409,53.066c37.767,50.629,0.517,109.677-77.059,88.083
						c-8.062,28.492-50.291,40.91-76.001,18.403c-22.457,39.75-117.277,42.51-132.847-18.403
						C68.867,395.776,6.338,320.162,67.47,259.029c-21.738-21.738-8.832-66.671,21.749-69.257
						c-16.012-53.491,26.536-112.08,94.639-87.832C198.692,74.243,240.165,73.726,256.16,93.385z"/>
				</defs>
				<clipPath id="SVGID_00000127017241609952803870000016227584932691626891_">
					<use xlink:href="#SVGID_1_"  style="overflow:visible;"/>
				</clipPath>
				<g style="clip-path:url(#SVGID_00000127017241609952803870000016227584932691626891_);">
					<g>
						<polygon style="fill:#ECEBFA;" points="337.389,303.795 254.743,221.15 51.117,221.15 51.117,219.598 255.386,219.598 
							338.485,302.697 						"/>
						<polygon style="fill:#ECEBFA;" points="320.918,417.767 319.366,417.767 319.366,317.111 252.445,250.192 101.486,250.192 
							101.486,248.64 253.088,248.64 320.918,316.469 						"/>
						<rect x="297.498" y="348.471" style="fill:#ECEBFA;" width="1.552" height="72.744"/>
						<polygon style="fill:#ECEBFA;" points="164.288,428.866 162.736,428.866 162.736,355.945 221.767,296.913 222.865,298.011 
							164.288,356.588 						"/>
						<rect x="275.827" y="332.9" style="fill:#ECEBFA;" width="1.552" height="82.106"/>
						<polygon style="fill:#ECEBFA;" points="373.417,393.305 371.865,393.305 371.865,274.227 271.941,174.303 368.411,77.833 
							369.509,78.931 274.136,174.303 373.417,273.584 						"/>
						
							<rect x="312.669" y="131.308" transform="matrix(0.7071 -0.7071 0.7071 0.7071 8.7001 285.1731)" style="fill:#ECEBFA;" width="71.831" height="1.552"/>
						<rect x="393.568" y="243.827" style="fill:#ECEBFA;" width="1.552" height="149.478"/>
						<polygon style="fill:#ECEBFA;" points="233.195,160.924 196.579,124.607 196.579,71.134 198.131,71.134 198.131,123.96 
							234.289,159.822 						"/>
						<rect x="220.675" y="74.243" style="fill:#ECEBFA;" width="1.552" height="47.351"/>
						<polygon style="fill:#ECEBFA;" points="159.612,200.665 103.118,144.172 103.118,89.272 104.67,89.272 104.67,143.529 
							160.709,199.568 						"/>
						
							<rect x="97.187" y="143.76" transform="matrix(0.7071 -0.7071 0.7071 0.7071 -92.7184 119.5598)" style="fill:#ECEBFA;" width="1.552" height="55.882"/>
						<polygon style="fill:#ECEBFA;" points="139.73,393.305 138.178,393.305 138.178,343.744 56.274,261.841 57.372,260.743 
							139.73,343.102 						"/>
						<rect x="114.022" y="348.471" style="fill:#ECEBFA;" width="1.552" height="41.813"/>
						<rect x="183.082" y="366.304" style="fill:#ECEBFA;" width="1.552" height="65.947"/>
						<polygon style="fill:#ECEBFA;" points="374.086,248.976 372.534,248.976 372.534,182.337 420.828,134.043 421.926,135.14 
							374.086,182.98 						"/>
						<polygon style="fill:#ECEBFA;" points="417.356,289.809 415.804,289.809 415.804,231.329 461.002,186.131 462.1,187.229 
							417.356,231.972 						"/>
						<rect x="51.117" y="235.067" style="fill:#ECEBFA;" width="66.604" height="1.552"/>
					</g>
					<g>
						<path style="fill:#ECEBFA;" d="M419.472,289.809c0,1.598-1.293,2.893-2.892,2.893c-1.597,0-2.892-1.295-2.892-2.893
							c0-1.597,1.295-2.892,2.892-2.892C418.179,286.917,419.472,288.212,419.472,289.809z"/>
						<path style="fill:#ECEBFA;" d="M397.236,243.827c0,1.598-1.296,2.892-2.892,2.892c-1.599,0-2.892-1.294-2.892-2.892
							c0-1.598,1.293-2.892,2.892-2.892C395.94,240.935,397.236,242.23,397.236,243.827z"/>
						<path style="fill:#ECEBFA;" d="M376.202,248.976c0,1.597-1.296,2.892-2.892,2.892c-1.599,0-2.892-1.294-2.892-2.892
							c0-1.598,1.294-2.892,2.892-2.892C374.906,246.083,376.202,247.378,376.202,248.976z"/>
						<circle style="fill:#ECEBFA;" cx="323.187" cy="157.48" r="2.892"/>
						<path style="fill:#ECEBFA;" d="M224.343,121.594c0,1.597-1.294,2.892-2.892,2.892c-1.598,0-2.892-1.294-2.892-2.892
							c0-1.598,1.294-2.892,2.892-2.892C223.049,118.702,224.343,119.997,224.343,121.594z"/>
						<circle style="fill:#ECEBFA;" cx="233.742" cy="160.683" r="2.892"/>
						<path style="fill:#ECEBFA;" d="M120.612,192.358c0,1.598-1.294,2.892-2.892,2.892c-1.597,0-2.892-1.294-2.892-2.892
							s1.294-2.892,2.892-2.892C119.318,189.466,120.612,190.761,120.612,192.358z"/>
						<path style="fill:#ECEBFA;" d="M120.612,235.844c0,1.597-1.294,2.892-2.892,2.892c-1.597,0-2.892-1.294-2.892-2.892
							c0-1.598,1.294-2.892,2.892-2.892C119.318,232.952,120.612,234.246,120.612,235.844z"/>
						<path style="fill:#ECEBFA;" d="M104.378,249.416c0,1.598-1.294,2.892-2.892,2.892c-1.598,0-2.892-1.294-2.892-2.892
							c0-1.598,1.294-2.892,2.892-2.892C103.083,246.524,104.378,247.818,104.378,249.416z"/>
						<path style="fill:#ECEBFA;" d="M117.69,348.471c0,1.598-1.294,2.893-2.892,2.893c-1.598,0-2.892-1.295-2.892-2.893
							c0-1.597,1.294-2.892,2.892-2.892C116.395,345.579,117.69,346.874,117.69,348.471z"/>
						<circle style="fill:#ECEBFA;" cx="183.858" cy="366.304" r="2.892"/>
						<path style="fill:#ECEBFA;" d="M279.495,332.372c0,1.598-1.293,2.892-2.892,2.892c-1.597,0-2.893-1.295-2.893-2.892
							c0-1.597,1.296-2.892,2.893-2.892C278.202,329.48,279.495,330.775,279.495,332.372z"/>
						<path style="fill:#ECEBFA;" d="M301.166,348.471c0,1.598-1.294,2.893-2.893,2.893c-1.597,0-2.892-1.295-2.892-2.893
							c0-1.597,1.295-2.892,2.892-2.892C299.872,345.579,301.166,346.874,301.166,348.471z"/>
						<path style="fill:#ECEBFA;" d="M340.828,303.246c0,1.598-1.294,2.892-2.892,2.892c-1.597,0-2.893-1.294-2.893-2.892
							c0-1.598,1.296-2.892,2.893-2.892C339.534,300.354,340.828,301.648,340.828,303.246z"/>
					</g>
				</g>
			</g>
		</g>
		<g>
			<g>
				<path style="fill:#FFFFFF;" d="M124.281,304.468c0,18.785-15.229,34.016-34.017,34.016c-18.786,0-34.017-15.23-34.017-34.016
					c0-18.787,15.23-34.019,34.017-34.019C109.052,270.449,124.281,285.681,124.281,304.468z"/>
				<g>
					<g>
						<polygon style="fill:#D49B54;" points="96.951,323.491 86.791,323.491 86.791,298.979 96.951,293.98 						"/>
						<polygon style="fill:#A67942;" points="87.578,323.491 77.419,323.491 77.419,298.979 87.578,293.98 						"/>
						<polygon style="fill:#D49B54;" points="78.206,323.491 68.045,323.491 68.045,298.979 78.206,293.98 						"/>
					</g>
					<path style="fill:#DBDAF2;" d="M103.681,290.111c0-5.967-3.747-9.676-9.552-7.58c-4.838-2.741-14.675-5.321-17.497,1.613
						c-4.435,0-4.596,10.803,5.08,6.771c4.998,1.292,10.321,1.614,12.74-2.578C96.87,289.303,99.185,285.614,103.681,290.111z"/>
					<g>
						<polygon style="fill:#7571B8;" points="107.651,303.797 105.803,293.175 106.788,293.175 106.788,291.563 100.498,291.563 
							100.498,293.175 101.559,293.175 99.711,303.797 						"/>
						<rect x="96.951" y="302.528" style="fill:#5653A3;" width="16.206" height="20.963"/>
						<g>
							<rect x="106.788" y="313.081" style="fill:#FFFFFF;" width="4.23" height="10.44"/>
							<rect x="99.167" y="310.792" style="fill:#FFFFFF;" width="2.319" height="2.321"/>
							<rect x="102.735" y="310.792" style="fill:#FFFFFF;" width="2.319" height="2.321"/>
							<rect x="99.167" y="314.459" style="fill:#FFFFFF;" width="2.319" height="2.321"/>
							<rect x="102.735" y="314.459" style="fill:#FFFFFF;" width="2.319" height="2.321"/>
							<rect x="99.167" y="318.128" style="fill:#FFFFFF;" width="2.319" height="2.318"/>
							<rect x="102.735" y="318.128" style="fill:#FFFFFF;" width="2.319" height="2.318"/>
						</g>
					</g>
					<path style="fill:#5653A3;" d="M116.31,323.847H64.93c-0.197,0-0.356-0.159-0.356-0.355c0-0.196,0.159-0.355,0.356-0.355
						h51.381c0.196,0,0.355,0.158,0.355,0.355C116.665,323.688,116.506,323.847,116.31,323.847z"/>
				</g>
			</g>
			<g>
				<path style="fill:#FFFFFF;" d="M268.989,374.555c0,18.785-15.232,34.015-34.021,34.015c-18.787,0-34.018-15.229-34.018-34.015
					c0-18.788,15.231-34.02,34.018-34.02C253.758,340.535,268.989,355.767,268.989,374.555z"/>
				<g>
					<g>
						<g>
							
								<rect x="217.9" y="354.528" transform="matrix(0.603 -0.7978 0.7978 0.603 -204.6616 326.9771)" style="fill:#7571B8;" width="16.529" height="29.144"/>
							<path style="fill:#FAEEE1;" d="M231.077,380.877l-17.583-13.287c-0.151-0.115-0.181-0.331-0.067-0.482
								c0.344-0.456,0.254-1.104-0.2-1.449c-0.152-0.114-0.181-0.328-0.067-0.479l5.683-7.521c0.115-0.152,0.329-0.182,0.481-0.066
								c0.454,0.345,1.104,0.253,1.446-0.201c0.115-0.151,0.331-0.181,0.482-0.066l17.582,13.289
								c0.152,0.113,0.182,0.329,0.067,0.48c-0.344,0.454-0.253,1.103,0.201,1.447c0.152,0.114,0.182,0.329,0.068,0.481
								l-5.684,7.519c-0.113,0.151-0.328,0.183-0.481,0.068c-0.453-0.345-1.104-0.254-1.447,0.201
								C231.443,380.962,231.228,380.991,231.077,380.877z M214.157,367.227l17.087,12.917c0.515-0.457,1.261-0.56,1.881-0.263
								l5.31-7.027c-0.455-0.514-0.558-1.259-0.263-1.878l-17.087-12.917c-0.516,0.455-1.261,0.558-1.882,0.261l-5.31,7.025
								C214.349,365.861,214.452,366.606,214.157,367.227z"/>
							<path style="fill:#FAEEE1;" d="M228.477,370.848c-0.966,1.278-2.784,1.531-4.062,0.567c-1.276-0.967-1.529-2.786-0.563-4.063
								c0.964-1.275,2.783-1.529,4.062-0.564C229.191,367.752,229.442,369.571,228.477,370.848z"/>
						</g>
						<g>
							<rect x="209.061" y="374.587" style="fill:#5653A3;" width="29.143" height="16.527"/>
							<path style="fill:#FAEEE1;" d="M234.652,389.283h-22.039c-0.19,0-0.343-0.153-0.343-0.342c0-0.572-0.465-1.035-1.035-1.035
								c-0.189,0-0.342-0.155-0.342-0.345v-9.423c0-0.191,0.153-0.344,0.342-0.344c0.57,0,1.035-0.465,1.035-1.033
								c0-0.19,0.153-0.344,0.343-0.344h22.039c0.191,0,0.343,0.153,0.343,0.344c0,0.568,0.464,1.033,1.034,1.033
								c0.189,0,0.343,0.152,0.343,0.344v9.423c0,0.19-0.153,0.345-0.343,0.345c-0.569,0-1.034,0.463-1.034,1.035
								C234.996,389.13,234.843,389.283,234.652,389.283z M212.923,388.597h21.42c0.137-0.673,0.669-1.206,1.344-1.345v-8.806
								c-0.675-0.137-1.205-0.668-1.344-1.342h-21.42c-0.138,0.674-0.67,1.205-1.344,1.342v8.806
								C212.253,387.391,212.785,387.924,212.923,388.597z"/>
							<path style="fill:#FAEEE1;" d="M226.532,382.851c0,1.602-1.298,2.899-2.899,2.899c-1.601,0-2.899-1.298-2.899-2.899
								c0-1.6,1.299-2.9,2.899-2.9C225.234,379.95,226.532,381.251,226.532,382.851z"/>
						</g>
					</g>
					<g>
						<path style="fill:#9C3A3F;" d="M258.895,390.153c0,1.188-0.963,2.15-2.151,2.15H229.26c-1.187,0-2.15-0.963-2.15-2.15v-32.737
							c0-1.188,0.963-2.15,2.15-2.15h27.484c1.189,0,2.151,0.963,2.151,2.15V390.153z"/>
						<path style="fill:#C74B50;" d="M257.949,390.153c0,1.188-0.963,2.15-2.151,2.15h-27.482c-1.188,0-2.15-0.963-2.15-2.15
							v-32.737c0-1.188,0.962-2.15,2.15-2.15h27.482c1.188,0,2.151,0.963,2.151,2.15V390.153z"/>
						<rect x="229.392" y="359.148" style="fill:#3A3845;" width="25.269" height="6.154"/>
						<g>
							<rect x="229.456" y="369.1" style="fill:#FFFFFF;" width="3.263" height="3.266"/>
							<rect x="234.938" y="369.1" style="fill:#FFFFFF;" width="3.266" height="3.266"/>
							<rect x="240.424" y="369.1" style="fill:#FFFFFF;" width="3.264" height="3.266"/>
							<rect x="245.908" y="369.1" style="fill:#FFFFFF;" width="3.266" height="3.266"/>
							<rect x="251.393" y="369.1" style="fill:#FFFFFF;" width="3.267" height="3.266"/>
							<rect x="229.456" y="374.343" style="fill:#FFFFFF;" width="3.263" height="3.266"/>
							<rect x="234.938" y="374.343" style="fill:#FFFFFF;" width="3.266" height="3.266"/>
							<rect x="240.424" y="374.343" style="fill:#FFFFFF;" width="3.264" height="3.266"/>
							<rect x="245.908" y="374.343" style="fill:#FFFFFF;" width="3.266" height="3.266"/>
							<rect x="251.393" y="374.343" style="fill:#FFFFFF;" width="3.267" height="3.266"/>
							<rect x="229.456" y="379.587" style="fill:#FFFFFF;" width="3.263" height="3.264"/>
							<rect x="234.938" y="379.587" style="fill:#FFFFFF;" width="3.266" height="3.264"/>
							<rect x="240.424" y="379.587" style="fill:#FFFFFF;" width="3.264" height="3.264"/>
							<rect x="245.908" y="379.587" style="fill:#FFFFFF;" width="3.266" height="3.264"/>
							<rect x="229.456" y="384.829" style="fill:#FFFFFF;" width="3.263" height="3.264"/>
							<rect x="234.938" y="384.829" style="fill:#FFFFFF;" width="3.266" height="3.264"/>
							<rect x="240.424" y="384.829" style="fill:#FFFFFF;" width="3.264" height="3.264"/>
							<rect x="245.908" y="384.829" style="fill:#FFFFFF;" width="3.266" height="3.264"/>
							<rect x="251.393" y="379.587" style="fill:#FFFFFF;" width="3.267" height="8.506"/>
						</g>
					</g>
				</g>
			</g>
			<g>
				<path style="fill:#FFFFFF;" d="M317.008,123.29c0,18.787-15.229,34.017-34.021,34.017c-18.786,0-34.012-15.23-34.012-34.017
					c0-18.788,15.226-34.017,34.012-34.017C301.778,89.272,317.008,104.502,317.008,123.29z"/>
				<g>
					<path style="fill:#D49B54;" d="M296.096,141.532c0,0.345-0.279,0.624-0.625,0.624h-29.594c-0.344,0-0.625-0.279-0.625-0.624
						v-39.876c0-0.344,0.281-0.623,0.625-0.623h29.594c0.346,0,0.625,0.279,0.625,0.623V141.532z"/>
					<g>
						<path style="fill:#5653A3;" d="M301.438,147.189c0,0.344-0.276,0.624-0.622,0.624H271.22c-0.346,0-0.622-0.28-0.622-0.624
							v-39.875c0-0.346,0.276-0.624,0.622-0.624h29.597c0.346,0,0.622,0.279,0.622,0.624V147.189z"/>
						<g>
							<path style="fill:#FFFFFF;" d="M299.155,113.69h-21.394c-0.196,0-0.355-0.159-0.355-0.355c0-0.197,0.159-0.354,0.355-0.354
								h21.394c0.196,0,0.355,0.158,0.355,0.354C299.511,113.532,299.352,113.69,299.155,113.69z"/>
							<path style="fill:#FFFFFF;" d="M299.155,117.222h-26.157c-0.193,0-0.354-0.159-0.354-0.354c0-0.197,0.16-0.356,0.354-0.356
								h26.157c0.196,0,0.355,0.159,0.355,0.356C299.511,117.063,299.352,117.222,299.155,117.222z"/>
							<path style="fill:#FFFFFF;" d="M299.155,120.753h-26.157c-0.193,0-0.354-0.16-0.354-0.356c0-0.196,0.16-0.355,0.354-0.355
								h26.157c0.196,0,0.355,0.16,0.355,0.355C299.511,120.594,299.352,120.753,299.155,120.753z"/>
							<path style="fill:#FFFFFF;" d="M284.616,124.284h-11.618c-0.193,0-0.354-0.16-0.354-0.355s0.16-0.355,0.354-0.355h11.618
								c0.196,0,0.354,0.16,0.354,0.355S284.812,124.284,284.616,124.284z"/>
							<path style="fill:#FFFFFF;" d="M299.155,127.814h-21.394c-0.196,0-0.355-0.159-0.355-0.354c0-0.196,0.159-0.356,0.355-0.356
								h21.394c0.196,0,0.355,0.16,0.355,0.356C299.511,127.656,299.352,127.814,299.155,127.814z"/>
							<path style="fill:#FFFFFF;" d="M299.155,131.345h-26.157c-0.193,0-0.354-0.157-0.354-0.354c0-0.196,0.16-0.355,0.354-0.355
								h26.157c0.196,0,0.355,0.16,0.355,0.355C299.511,131.188,299.352,131.345,299.155,131.345z"/>
							<path style="fill:#FFFFFF;" d="M299.155,134.876h-26.157c-0.193,0-0.354-0.159-0.354-0.355c0-0.196,0.16-0.355,0.354-0.355
								h26.157c0.196,0,0.355,0.159,0.355,0.355C299.511,134.718,299.352,134.876,299.155,134.876z"/>
							<path style="fill:#FFFFFF;" d="M299.155,138.407h-26.157c-0.193,0-0.354-0.159-0.354-0.355c0-0.197,0.16-0.354,0.354-0.354
								h26.157c0.196,0,0.355,0.158,0.355,0.354C299.511,138.249,299.352,138.407,299.155,138.407z"/>
							<path style="fill:#FFFFFF;" d="M292.092,141.939h-19.094c-0.193,0-0.354-0.159-0.354-0.355c0-0.197,0.16-0.356,0.354-0.356
								h19.094c0.198,0,0.357,0.159,0.357,0.356C292.449,141.78,292.29,141.939,292.092,141.939z"/>
						</g>
					</g>
				</g>
			</g>
			<g>
				<path style="fill:#FFFFFF;" d="M416.693,334.422c0,18.786-15.228,34.017-34.017,34.017c-18.786,0-34.018-15.23-34.018-34.017
					c0-18.787,15.231-34.018,34.018-34.018C401.466,300.404,416.693,315.635,416.693,334.422z"/>
				<g>
					<path style="fill:#6A3C73;" d="M357.029,320.868c0-1.138,0.922-2.059,2.06-2.059h35.706c1.136,0,2.057,0.921,2.057,2.059v26.55
						c0,1.139-0.921,2.06-2.057,2.06h-35.706c-1.138,0-2.06-0.921-2.06-2.06V320.868z"/>
					<path style="fill:#ACA9D9;" d="M398.195,310.421l-3.124,1.461l1.001,0.698l-8.885,12.912l-8.53-4.042
						c-0.234-0.108-0.511-0.04-0.66,0.169l-13.334,18.419l-10.111-5.913c-0.257-0.148-0.58-0.061-0.728,0.191
						c-0.149,0.253-0.064,0.58,0.19,0.728l10.526,6.158c0.085,0.049,0.179,0.072,0.27,0.072c0.165,0,0.329-0.077,0.432-0.22
						l13.358-18.453l8.543,4.048c0.234,0.111,0.517,0.035,0.665-0.18l9.137-13.279l0.951,0.665L398.195,310.421z"/>
					<g>
						<g>
							<rect x="402.804" y="316.79" style="fill:#C74B50;" width="5.019" height="32.22"/>
							<rect x="394.344" y="321.868" style="fill:#D49B54;" width="5.02" height="27.198"/>
							<rect x="385.883" y="332.372" style="fill:#C74B50;" width="5.018" height="16.738"/>
							<rect x="368.961" y="337.735" style="fill:#C74B50;" width="5.019" height="11.375"/>
							<rect x="377.421" y="327.81" style="fill:#D49B54;" width="5.019" height="21.307"/>
						</g>
						<path style="fill:#C74B50;" d="M411.079,349.536h-56.796c-0.295,0-0.531-0.237-0.531-0.532c0-0.294,0.236-0.533,0.531-0.533
							h56.796c0.295,0,0.531,0.239,0.531,0.533C411.61,349.299,411.374,349.536,411.079,349.536z"/>
					</g>
				</g>
			</g>
			<g>
				<path style="fill:#FFFFFF;" d="M439.331,189.773c0,18.787-15.229,34.016-34.018,34.016c-18.786,0-34.017-15.23-34.017-34.016
					c0-18.787,15.23-34.017,34.017-34.017C424.102,155.756,439.331,170.985,439.331,189.773z"/>
				<g>
					<path style="fill:#7571B8;" d="M411.185,184.687c0-6.814-4.679-12.205-12.308-12.205c-6.817,0-11.901,0.894-15.258,7.119
						c-1.251,2.319-2.316,5.733-2.233,9.875c-2.345,4.467-5.6,8.436,0.404,7.011c0.455,4.089,1.219,6.693,1.982,8.085
						c1.474,2.696,7.778,0.917,10.068,0c1.136,1.981,2.29,4.502,4.12,7.478c5.647,0,9.052-2.136,12.104-5.188
						c-2.083-3.247-3.937-6.145-4.957-8.874C409.99,193.917,411.185,189.874,411.185,184.687z"/>
					<path style="fill:#6A3C73;" d="M427.59,183.879c0-6.815-4.679-12.206-12.308-12.206c-6.816,0-11.9,0.893-15.258,7.119
						c-1.251,2.32-2.315,5.733-2.232,9.875c-2.345,4.467-5.601,8.435,0.403,7.011c0.455,4.089,1.221,6.693,1.983,8.086
						c1.473,2.697,7.78,0.917,10.069,0c1.137,1.981,2.288,4.502,4.119,7.477c5.646,0,9.054-2.136,12.105-5.188
						c-2.086-3.247-3.94-6.145-4.96-8.875C426.395,193.109,427.59,189.066,427.59,183.879z"/>
				</g>
			</g>
			<g>
				<path style="fill:#FFFFFF;" d="M182.832,143.852c0,18.786-15.231,34.016-34.018,34.016c-18.787,0-34.016-15.23-34.016-34.016
					c0-18.789,15.229-34.017,34.016-34.017C167.602,109.835,182.832,125.063,182.832,143.852z"/>
				<g>
					<g>
						<path style="fill:#5653A3;" d="M164.96,142.94c0-1.571,1.034-2.899,2.456-3.346c-0.252-1.658-0.685-3.255-1.282-4.772
							c-1.456,0.333-3.019-0.298-3.809-1.655c-0.79-1.357-0.568-3.023,0.436-4.124c-1.056-1.307-2.259-2.493-3.582-3.531
							c-1.087,1.02-2.749,1.267-4.117,0.497c-1.368-0.77-2.021-2.323-1.711-3.781c-1.425-0.538-2.922-0.935-4.47-1.169
							c-0.448,1.423-1.775,2.454-3.346,2.454c-1.57,0-2.899-1.031-3.345-2.454c-1.657,0.251-3.256,0.686-4.771,1.282
							c0.332,1.457-0.298,3.017-1.656,3.811c-1.355,0.787-3.023,0.566-4.126-0.438c-1.307,1.057-2.492,2.256-3.53,3.579
							c1.02,1.087,1.268,2.75,0.499,4.12c-0.772,1.37-2.323,2.02-3.784,1.71c-0.537,1.425-0.934,2.923-1.168,4.471
							c1.423,0.446,2.456,1.775,2.456,3.346c0,1.569-1.031,2.897-2.455,3.345c0.251,1.658,0.686,3.258,1.284,4.773
							c1.455-0.335,3.019,0.295,3.809,1.655c0.79,1.355,0.566,3.021-0.438,4.123c1.057,1.309,2.258,2.492,3.581,3.531
							c1.087-1.02,2.751-1.267,4.12-0.497c1.368,0.77,2.02,2.324,1.71,3.782c1.426,0.539,2.921,0.936,4.471,1.17
							c0.446-1.423,1.775-2.456,3.345-2.456c1.571,0,2.9,1.033,3.346,2.454c1.657-0.251,3.256-0.686,4.771-1.284
							c-0.332-1.454,0.296-3.016,1.656-3.808c1.355-0.789,3.022-0.566,4.123,0.438c1.309-1.056,2.494-2.257,3.532-3.582
							c-1.021-1.086-1.268-2.749-0.499-4.117c0.772-1.369,2.324-2.021,3.783-1.71c0.54-1.426,0.936-2.923,1.17-4.472
							C165.995,145.839,164.96,144.509,164.96,142.94z M145.535,155.808c-7.107,0-12.87-5.76-12.87-12.868s5.763-12.87,12.87-12.87
							c7.108,0,12.87,5.762,12.87,12.87S152.643,155.808,145.535,155.808z"/>
						<path style="fill:#5653A3;" d="M152.116,142.941c0,3.635-2.946,6.581-6.581,6.581c-3.634,0-6.581-2.946-6.581-6.581
							c0-3.635,2.947-6.581,6.581-6.581C149.169,136.36,152.116,139.306,152.116,142.941z"/>
					</g>
					<g>
						<path style="fill:#D49B54;" d="M160.299,132.481c-2.632,4.244-8.218,8.862-14.608,10.736c0,5.699,1.718,19.663,14.608,24.389
							c12.889-4.726,14.608-18.689,14.608-24.389C168.516,141.343,162.929,136.725,160.299,132.481z"/>
						<path style="fill:#632966;" d="M160.299,166.447c-11.848-4.596-13.381-17.449-13.515-22.438
							c5.889-1.941,10.781-5.972,13.515-9.616c2.732,3.643,7.624,7.674,13.514,9.616
							C173.68,148.999,172.146,161.852,160.299,166.447z"/>
						<g>
							<path style="fill:#D49B54;" d="M160.243,160.683c-0.654,0-1.191-0.194-1.612-0.583c-0.421-0.389-0.63-0.912-0.63-1.565
								c0-0.661,0.206-1.186,0.619-1.575c0.412-0.389,0.953-0.583,1.624-0.583c0.668,0,1.207,0.2,1.616,0.6
								c0.409,0.401,0.612,0.921,0.612,1.558c0,0.638-0.21,1.156-0.63,1.553C161.42,160.483,160.888,160.683,160.243,160.683z
								 M159.203,155.021l-0.794-5.791v-6.024h3.655v6.024l-0.759,5.791H159.203z"/>
						</g>
					</g>
				</g>
			</g>
		</g>
		<g>
			<g>
				<g>
					<rect x="150.876" y="192.358" style="fill:#422247;" width="95.631" height="131.364"/>
					<rect x="132.488" y="192.358" style="fill:#5E3866;" width="95.631" height="131.364"/>
					<polygon style="fill:#764680;" points="132.488,200.135 132.488,323.723 228.119,323.723 228.119,295.767 					"/>
				</g>
				<g>
					<g>
						<rect x="140.73" y="211.087" style="fill:#FFFFFF;" width="79.147" height="18.573"/>
						<rect x="141.765" y="212.122" style="fill:#D49B54;" width="77.078" height="16.504"/>
						<g>
							<path style="fill:#FFFFFF;" d="M155.395,220.374c0,1.816-1.474,3.289-3.29,3.289c-1.817,0-3.291-1.473-3.291-3.289
								c0-1.818,1.474-3.291,3.291-3.291C153.922,217.083,155.395,218.557,155.395,220.374z"/>
							<path style="fill:#FFFFFF;" d="M166.8,220.374c0,1.816-1.474,3.289-3.291,3.289c-1.817,0-3.289-1.473-3.289-3.289
								c0-1.818,1.472-3.291,3.289-3.291C165.326,217.083,166.8,218.557,166.8,220.374z"/>
							<path style="fill:#FFFFFF;" d="M178.205,220.374c0,1.816-1.473,3.289-3.29,3.289c-1.817,0-3.29-1.473-3.29-3.289
								c0-1.818,1.473-3.291,3.29-3.291C176.731,217.083,178.205,218.557,178.205,220.374z"/>
						</g>
					</g>
					<g>
						<rect x="140.73" y="234.541" style="fill:#FFFFFF;" width="79.147" height="18.573"/>
						<rect x="141.765" y="235.576" style="fill:#D49B54;" width="77.078" height="16.503"/>
						<g>
							<path style="fill:#FFFFFF;" d="M155.395,243.828c0,1.816-1.474,3.289-3.29,3.289c-1.817,0-3.291-1.473-3.291-3.289
								c0-1.818,1.474-3.291,3.291-3.291C153.922,240.537,155.395,242.01,155.395,243.828z"/>
							<path style="fill:#FFFFFF;" d="M166.8,243.828c0,1.816-1.474,3.289-3.291,3.289c-1.817,0-3.289-1.473-3.289-3.289
								c0-1.818,1.472-3.291,3.289-3.291C165.326,240.537,166.8,242.01,166.8,243.828z"/>
							<path style="fill:#FFFFFF;" d="M178.205,243.828c0,1.816-1.473,3.289-3.29,3.289c-1.817,0-3.29-1.473-3.29-3.289
								c0-1.818,1.473-3.291,3.29-3.291C176.731,240.537,178.205,242.01,178.205,243.828z"/>
						</g>
					</g>
					<g>
						<rect x="140.73" y="257.995" style="fill:#FFFFFF;" width="79.147" height="18.577"/>
						<rect x="141.765" y="259.029" style="fill:#D49B54;" width="77.078" height="16.508"/>
						<g>
							<path style="fill:#FFFFFF;" d="M155.395,267.286c0,1.814-1.474,3.288-3.29,3.288c-1.817,0-3.291-1.474-3.291-3.288
								c0-1.819,1.474-3.293,3.291-3.293C153.922,263.993,155.395,265.467,155.395,267.286z"/>
							<path style="fill:#FFFFFF;" d="M166.8,267.286c0,1.814-1.474,3.288-3.291,3.288c-1.817,0-3.289-1.474-3.289-3.288
								c0-1.819,1.472-3.293,3.289-3.293C165.326,263.993,166.8,265.467,166.8,267.286z"/>
							<path style="fill:#FFFFFF;" d="M178.205,267.286c0,1.814-1.473,3.288-3.29,3.288c-1.817,0-3.29-1.474-3.29-3.288
								c0-1.819,1.473-3.293,3.29-3.293C176.731,263.993,178.205,265.467,178.205,267.286z"/>
						</g>
					</g>
					<g>
						<rect x="140.73" y="281.451" style="fill:#FFFFFF;" width="79.147" height="18.574"/>
						<rect x="141.765" y="282.486" style="fill:#D49B54;" width="77.078" height="16.505"/>
						<g>
							<path style="fill:#FFFFFF;" d="M155.395,290.739c0,1.815-1.474,3.288-3.29,3.288c-1.817,0-3.291-1.473-3.291-3.288
								c0-1.818,1.474-3.292,3.291-3.292C153.922,287.447,155.395,288.921,155.395,290.739z"/>
							<path style="fill:#FFFFFF;" d="M166.8,290.739c0,1.815-1.474,3.288-3.291,3.288c-1.817,0-3.289-1.473-3.289-3.288
								c0-1.818,1.472-3.292,3.289-3.292C165.326,287.447,166.8,288.921,166.8,290.739z"/>
							<path style="fill:#FFFFFF;" d="M178.205,290.739c0,1.815-1.473,3.288-3.29,3.288c-1.817,0-3.29-1.473-3.29-3.288
								c0-1.818,1.473-3.292,3.29-3.292C176.731,287.447,178.205,288.921,178.205,290.739z"/>
						</g>
					</g>
				</g>
			</g>
			<g>
				<g>
					<rect x="251.803" y="289.81" style="fill:#2A162E;" width="41.977" height="29.316"/>
					<path style="fill:#522F59;" d="M361.727,290.5c0,1.715-1.391,3.104-3.105,3.104h-171.66c-1.714,0-3.104-1.39-3.104-3.104
						V173.577c0-1.715,1.39-3.104,3.104-3.104h171.66c1.714,0,3.105,1.389,3.105,3.104V290.5z"/>
					<path style="fill:#422647;" d="M183.858,180.98V290.5c0,1.715,1.39,3.104,3.104,3.104h160.768L183.858,180.98z"/>
					<rect x="188.462" y="175.078" style="fill:#FAEBD7;" width="168.659" height="100.368"/>
					<path style="fill:#522F59;" d="M301.418,319.126c0-0.571-0.463-1.034-1.034-1.034H245.2c-0.571,0-1.035,0.463-1.035,1.034
						v3.563c0,0.571,0.464,1.034,1.035,1.034h55.184c0.571,0,1.034-0.463,1.034-1.034V319.126z"/>
					<path style="fill:#FFFFFF;" d="M218.936,285.155c0,0.571-0.463,1.034-1.035,1.034h-19.512c-0.571,0-1.035-0.463-1.035-1.034
						v-1.118c0-0.571,0.463-1.034,1.035-1.034h19.512c0.571,0,1.035,0.463,1.035,1.034V285.155z"/>
				</g>
				<g>
					<path style="fill:#5653A3;" d="M329.355,259.716c0,0.571-0.463,1.034-1.035,1.034H217.263c-0.572,0-1.035-0.463-1.035-1.034
						v-68.91c0-0.571,0.463-1.035,1.035-1.035H328.32c0.572,0,1.035,0.464,1.035,1.035V259.716z"/>
					<rect x="218.936" y="201.255" style="fill:#FFFFFF;" width="106.921" height="55.098"/>
					<g>
						<path style="fill:#D49B54;" d="M225.119,195.607c0,1.215-0.984,2.199-2.199,2.199c-1.215,0-2.199-0.984-2.199-2.199
							c0-1.214,0.984-2.199,2.199-2.199C224.135,193.408,225.119,194.393,225.119,195.607z"/>
						<path style="fill:#D49B54;" d="M233.742,195.607c0,1.215-0.984,2.199-2.199,2.199c-1.215,0-2.199-0.984-2.199-2.199
							c0-1.214,0.984-2.199,2.199-2.199C232.757,193.408,233.742,194.393,233.742,195.607z"/>
						<path style="fill:#D49B54;" d="M242.364,195.607c0,1.215-0.984,2.199-2.199,2.199c-1.214,0-2.199-0.984-2.199-2.199
							c0-1.214,0.984-2.199,2.199-2.199C241.38,193.408,242.364,194.393,242.364,195.607z"/>
					</g>
					<g>
						<path style="fill:#5653A3;" d="M236.192,244.305v-30.627h18.667v5.256h-12.645v20.114h12.851v5.256H236.192z M240.6,231.268
							v-5.256h12.189v5.256H240.6z"/>
						<path style="fill:#5653A3;" d="M260.486,244.305v-30.11c0.841-0.18,1.708-0.338,2.597-0.476
							c0.89-0.139,1.813-0.242,2.773-0.311c0.958-0.068,1.962-0.103,3.011-0.103c4.084,0,7.14,0.814,9.167,2.442
							c2.029,1.628,3.044,4.09,3.044,7.387c0,2.152-0.487,3.96-1.46,5.422c-0.974,1.462-2.35,2.566-4.128,3.311
							c-1.781,0.745-3.885,1.117-6.311,1.117c-0.566,0-1.049-0.006-1.449-0.02c-0.4-0.013-0.809-0.035-1.221-0.061v11.402H260.486z
							 M269.136,228.143c2.056,0,3.594-0.389,4.616-1.169c1.02-0.779,1.529-2.059,1.529-3.839c0-1.145-0.21-2.09-0.63-2.835
							c-0.421-0.745-1.049-1.301-1.884-1.666c-0.835-0.366-1.879-0.548-3.135-0.548c-0.648,0-1.214,0.024-1.697,0.072
							c-0.482,0.049-0.958,0.113-1.427,0.196v9.664c0.317,0.028,0.61,0.051,0.879,0.073c0.269,0.02,0.542,0.034,0.816,0.042
							C268.481,228.14,268.79,228.143,269.136,228.143z M276.793,244.305l-8.878-14.072h6.395l9.044,14.072H276.793z"/>
						<path style="fill:#5653A3;" d="M287.946,244.305v-30.11c1.256-0.276,2.563-0.493,3.923-0.653
							c1.358-0.157,2.777-0.237,4.252-0.237c4.153,0,7.271,0.886,9.355,2.66c2.081,1.773,3.124,4.576,3.124,8.412
							c0,3.6-1.024,6.335-3.074,8.204c-2.049,1.87-5.052,2.804-9.011,2.804c-0.471,0-0.892-0.01-1.264-0.031
							c-0.371-0.021-0.772-0.038-1.2-0.052v9.003H287.946z M296.599,230.419c2.041,0,3.559-0.466,4.551-1.396
							c0.994-0.932,1.491-2.453,1.491-4.563c0-2.179-0.487-3.756-1.459-4.729c-0.974-0.973-2.474-1.46-4.501-1.46
							c-0.525,0-0.99,0.014-1.398,0.042c-0.405,0.028-0.816,0.083-1.23,0.166v11.796c0.414,0.055,0.82,0.093,1.221,0.113
							C295.673,230.409,296.115,230.419,296.599,230.419z"/>
					</g>
				</g>
			</g>
		</g>
	</g>
</g>
</svg>
