<?xml version="1.0" encoding="utf-8"?>
<!-- Generator: Adobe Illustrator 27.5.0, SVG Export Plug-In . SVG Version: 6.00 Build 0)  -->
<svg version="1.1" xmlns="http://www.w3.org/2000/svg" xmlns:xlink="http://www.w3.org/1999/xlink" x="0px" y="0px"
	 viewBox="0 0 500 500" style="enable-background:new 0 0 500 500;" xml:space="preserve">
<g id="BACKGROUND">
	<g>
		<rect style="fill:#FFFFFF;" width="500" height="500"/>
		<path style="fill:#E5E6EA;" d="M43.096,469.31c-22.72-34.21-28.211-82.823-14.512-121.168
			c11.35-31.768,35.245-60.863,33.861-94.406c-1.091-26.438-17.82-49.566-28-74.171c-13.941-33.695-15.315-72.974,1.097-105.637
			c21.94-43.662,76.265-70.069,126.114-61.302c38.748,6.815,63.484,32.328,102.265,25.686c24.897-4.264,49.076-18.222,74.006-22.303
			c24.931-4.081,62.989-2.619,85.754,7.917c30.164,13.96,50.987,42.992,58.524,74.199c7.537,31.207,2.85,64.27-8.372,94.449
			c-5.739,15.433-13.21,30.5-15.508,46.731c-5.169,36.509,16.272,71.027,25.74,106.741c10.866,40.989,5.461,85.72-14.894,123.265"/>
	</g>
</g>
<g id="OBJECTS">
	<g>
		<g>
			
				<line style="fill:none;stroke:#0E1165;stroke-width:2.0605;stroke-linecap:round;stroke-miterlimit:10;" x1="67.209" y1="313.754" x2="67.209" y2="279.906"/>
			<path style="fill:#8EA6FF;" d="M111.726,280.307H60.818c-13.562,0-24.556-10.994-24.556-24.556l0,0
				c0-13.562,10.994-24.556,24.556-24.556h50.908c13.562,0,24.556,10.994,24.556,24.556l0,0
				C136.282,269.313,125.288,280.307,111.726,280.307z"/>
			<path style="fill:#E2654D;" d="M74.353,340.882h-28.12c-7.491,0-13.564-6.073-13.564-13.564v0
				c0-7.491,6.073-13.564,13.564-13.564h28.12c7.491,0,13.564,6.073,13.564,13.564v0C87.917,334.81,81.844,340.882,74.353,340.882z"
				/>
			<rect x="44.493" y="320.922" style="fill:#FDFFFF;" width="32.072" height="3.675"/>
			<rect x="44.493" y="328.606" style="fill:#FDFFFF;" width="32.072" height="3.675"/>
			<g>
				
					<rect x="71.26" y="235.208" transform="matrix(-1.836970e-16 1 -1 -1.836970e-16 333.5808 177.2818)" style="fill:#3459CC;" width="13.778" height="40.447"/>
				
					<rect x="96.084" y="253.318" transform="matrix(-1.836970e-16 1 -1 -1.836970e-16 358.4042 152.4584)" style="fill:#3459CC;" width="13.778" height="4.226"/>
				
					<rect x="102.428" y="253.318" transform="matrix(-1.836970e-16 1 -1 -1.836970e-16 364.7484 146.1142)" style="fill:#3459CC;" width="13.778" height="4.226"/>
				
					<rect x="108.772" y="253.318" transform="matrix(-1.836970e-16 1 -1 -1.836970e-16 371.0927 139.7699)" style="fill:#3459CC;" width="13.778" height="4.226"/>
				
					<rect x="115.116" y="253.318" transform="matrix(-1.836970e-16 1 -1 -1.836970e-16 377.4369 133.4257)" style="fill:#3459CC;" width="13.778" height="4.226"/>
				<polygon style="fill:#3459CC;" points="64.27,238.482 47.321,255.431 64.27,272.38 				"/>
			</g>
		</g>
		<g>
			<g>
				<path style="fill:#0E1165;" d="M104.569,129.784c0-12.038,4.687-23.355,13.198-31.866l0.003-0.003
					c1.655-1.655,3.42-3.161,5.272-4.521L84.14,54.494c-1.733,1.512-3.425,3.085-5.066,4.727c0,0,0,0-0.003,0.003
					c-18.847,18.847-29.228,43.906-29.228,70.561c0,24.258,8.599,47.196,24.354,65.333l38.921-38.921
					C107.57,148.56,104.569,139.404,104.569,129.784z"/>
				<path style="fill:#0E1165;" d="M149.637,84.718c11.628,0,22.579,4.386,30.983,12.36l38.707-38.707
					c-18.745-18.309-43.443-28.379-69.691-28.379c-24.335,0-47.336,8.656-65.497,24.501l38.901,38.901
					C130.713,87.764,139.941,84.718,149.637,84.718z"/>
				<path style="fill:#0E1165;" d="M252.068,91.088l-31.867-31.865c-0.288-0.288-0.582-0.568-0.873-0.852l-38.707,38.707
					c0.295,0.279,0.594,0.552,0.882,0.84l31.868,31.866l-31.868,31.868c-8.511,8.513-19.827,13.201-31.865,13.201
					c-12.041,0-23.357-4.687-31.868-13.201c-1.71-1.71-3.257-3.537-4.651-5.456l-38.921,38.921c1.556,1.792,3.18,3.538,4.874,5.233
					c19.456,19.453,45.01,29.183,70.566,29.183c25.554,0,51.108-9.729,70.564-29.183l31.869-31.869l-38.696-38.698L252.068,91.088z"
					/>
				
					<rect x="290.765" y="129.783" transform="matrix(0.6805 -0.7328 0.7328 0.6805 -2.191 254.5438)" style="fill:#0E1165;" width="0.002" height="0.002"/>
				<path style="fill:#0E1165;" d="M386.369,97.919c9.631,9.629,13.969,22.569,13.043,35.191h54.773
					c0.881-26.651-8.821-53.59-29.118-73.889l-0.003,0.003c-18.847-18.852-43.909-29.231-70.564-29.231
					c-25.859,0-50.219,9.77-68.862,27.564l38.723,38.723C342.033,80.366,369.362,80.911,386.369,97.919z"/>
				<path style="fill:#0E1165;" d="M399.412,133.11c-0.764,10.408-5.104,20.601-13.046,28.543
					c-12.235,12.235-29.811,15.941-45.29,11.138l-40.785,40.785c16.427,10.632,35.316,15.955,54.21,15.955
					c25.554,0,51.11-9.727,70.566-29.183c18.609-18.61,28.311-42.803,29.118-67.238H399.412z"/>
				<path style="fill:#0E1165;" d="M322.633,161.652l-31.867-31.867l-38.696,38.696l31.868,31.869
					c5.072,5.072,10.561,9.476,16.353,13.225l40.785-40.785C334.324,170.695,327.968,166.989,322.633,161.652z"/>
				<path style="fill:#0E1165;" d="M322.633,97.919c0.565-0.565,1.142-1.11,1.729-1.639l-38.723-38.723
					c-0.573,0.547-1.142,1.101-1.705,1.664l-31.866,31.867l38.698,38.695L322.633,97.919z"/>
				<polygon style="fill:#0E1165;" points="290.765,129.784 290.766,129.783 252.068,91.088 213.374,129.784 252.07,168.482 
					290.766,129.785 				"/>
			</g>
			<g>
				<path style="fill:#3459CC;" d="M104.569,124.656c0-12.038,4.687-23.355,13.198-31.866l0.003-0.003
					c1.655-1.655,3.42-3.161,5.272-4.521L84.14,49.365c-1.733,1.512-3.425,3.085-5.066,4.727c0,0,0,0-0.003,0.003
					c-18.847,18.847-29.228,43.906-29.228,70.561c0,24.258,8.599,47.196,24.354,65.333l38.921-38.921
					C107.57,143.431,104.569,134.276,104.569,124.656z"/>
				<path style="fill:#E2654D;" d="M149.637,79.59c11.628,0,22.579,4.386,30.983,12.36l38.707-38.707
					c-18.745-18.309-43.443-28.379-69.691-28.379c-24.335,0-47.336,8.656-65.497,24.501l38.901,38.901
					C130.713,82.635,139.941,79.59,149.637,79.59z"/>
				<path style="fill:#E8BBC7;" d="M252.068,85.959l-31.867-31.865c-0.288-0.288-0.582-0.568-0.873-0.852L180.621,91.95
					c0.295,0.279,0.594,0.552,0.882,0.84l31.868,31.866l-31.868,31.868c-8.511,8.514-19.827,13.201-31.865,13.201
					c-12.041,0-23.357-4.687-31.868-13.201c-1.71-1.71-3.257-3.537-4.651-5.456l-38.921,38.921c1.556,1.792,3.18,3.538,4.874,5.233
					c19.456,19.453,45.01,29.183,70.566,29.183c25.554,0,51.108-9.729,70.564-29.183l31.869-31.869l-38.696-38.697L252.068,85.959z"
					/>
				
					<rect x="290.765" y="124.655" transform="matrix(0.6805 -0.7328 0.7328 0.6805 1.5671 252.905)" style="fill:#8EA6FF;" width="0.002" height="0.002"/>
				<path style="fill:#3459CC;" d="M386.369,92.79c9.631,9.629,13.969,22.569,13.043,35.191h54.773
					c0.881-26.651-8.821-53.59-29.118-73.889l-0.003,0.003c-18.847-18.852-43.909-29.231-70.564-29.231
					c-25.859,0-50.219,9.77-68.862,27.564l38.723,38.723C342.033,75.238,369.362,75.783,386.369,92.79z"/>
				<path style="fill:#E2654D;" d="M399.412,127.981c-0.764,10.408-5.104,20.601-13.046,28.542
					c-12.235,12.235-29.811,15.941-45.29,11.138l-40.785,40.785c16.427,10.632,35.316,15.955,54.21,15.955
					c25.554,0,51.11-9.727,70.566-29.183c18.609-18.61,28.311-42.803,29.118-67.238H399.412z"/>
				<path style="fill:#E8BBC7;" d="M322.633,156.524l-31.867-31.867l-38.696,38.696l31.868,31.869
					c5.072,5.072,10.561,9.476,16.353,13.225l40.785-40.785C334.324,165.567,327.968,161.861,322.633,156.524z"/>
				<path style="fill:#8EA6FF;" d="M322.633,92.79c0.565-0.565,1.142-1.11,1.729-1.639l-38.723-38.723
					c-0.573,0.548-1.142,1.101-1.705,1.664l-31.866,31.867l38.698,38.695L322.633,92.79z"/>
				<polygon style="fill:#8EA6FF;" points="290.765,124.656 290.766,124.654 252.068,85.959 213.374,124.656 252.07,163.353 
					290.766,124.657 				"/>
			</g>
			<g>
				<g>
					<g>
						<g transform="translate(0,-952.3622)">
							<path style="fill:#8EA6FF;" d="M347.081,1043.418l-2.313,8.05c-2.12,0.577-4.138,1.398-6.009,2.448l-7.416-4.072
								l-6.629,6.544l4.125,7.321c-1.064,1.846-1.896,3.839-2.48,5.932l-8.155,2.283v9.274l8.155,2.283
								c0.584,2.093,1.416,4.086,2.48,5.932l-4.125,7.321l6.629,6.544l7.416-4.072c1.87,1.051,3.889,1.871,6.009,2.448l2.313,8.05
								h9.395l2.313-8.05c2.12-0.577,4.138-1.397,6.009-2.448l7.416,4.072l6.629-6.544l-4.125-7.321
								c1.064-1.846,1.896-3.839,2.48-5.932l8.155-2.283v-9.274l-8.155-2.283c-0.584-2.093-1.416-4.085-2.48-5.932l4.125-7.321
								l-6.629-6.544l-7.416,4.072c-1.87-1.05-3.889-1.871-6.009-2.448l-2.313-8.05H347.081z M351.778,1061.997
								c8.124,0,14.753,6.544,14.753,14.564c0,8.02-6.629,14.564-14.753,14.564c-8.124,0-14.753-6.544-14.753-14.564
								C337.025,1068.541,343.654,1061.997,351.778,1061.997z"/>
						</g>
					</g>
					<path style="fill:#8EA6FF;" d="M378.842,104.026"/>
				</g>
			</g>
			<g>
				<g>
					<g>
						<g>
							<path style="fill:#3459CC;" d="M150.001,123.969l-12.102-27.023c13.775-6.169,30.137-0.892,37.712,12.164L150.001,123.969z"
								/>
						</g>
					</g>
					<g>
						<g>
							<path style="fill:#E2654D;" d="M150.001,123.969l-21.255,20.614c-11.385-11.739-11.098-30.484,0.64-41.869
								c2.7-2.618,5.08-4.231,8.513-5.769L150.001,123.969z"/>
						</g>
					</g>
					<g>
						<g>
							<path style="fill:#8EA6FF;" d="M150.001,123.969l25.61-14.86c8.207,14.144,3.394,32.263-10.751,40.47
								c-11.966,6.943-26.483,4.935-36.115-4.996L150.001,123.969z"/>
						</g>
					</g>
				</g>
			</g>
		</g>
		<g>
			<g>
				<rect x="379.804" y="405.244" style="fill:#3459CC;" width="68.703" height="4.809"/>
				<path style="fill:#3459CC;" d="M467.388,407.648c0,2.477-2.008,4.486-4.486,4.486c-2.477,0-4.485-2.008-4.485-4.486
					c0-2.477,2.008-4.485,4.485-4.485C465.38,403.163,467.388,405.171,467.388,407.648z"/>
			</g>
			<g>
				<rect x="379.804" y="419.334" style="fill:#3459CC;" width="68.703" height="4.809"/>
				<path style="fill:#3459CC;" d="M467.388,421.738c0,2.477-2.008,4.486-4.486,4.486c-2.477,0-4.485-2.008-4.485-4.486
					c0-2.477,2.008-4.485,4.485-4.485C465.38,417.253,467.388,419.261,467.388,421.738z"/>
			</g>
			<g>
				<rect x="379.804" y="433.424" style="fill:#3459CC;" width="68.703" height="4.809"/>
				<path style="fill:#3459CC;" d="M467.388,435.828c0,2.477-2.008,4.486-4.486,4.486c-2.477,0-4.485-2.008-4.485-4.486
					c0-2.477,2.008-4.485,4.485-4.485C465.38,431.343,467.388,433.351,467.388,435.828z"/>
			</g>
			<g>
				<rect x="379.804" y="447.513" style="fill:#3459CC;" width="68.703" height="4.809"/>
				<path style="fill:#3459CC;" d="M467.388,449.918c0,2.477-2.008,4.486-4.486,4.486c-2.477,0-4.485-2.008-4.485-4.486
					c0-2.477,2.008-4.485,4.485-4.485C465.38,445.433,467.388,447.441,467.388,449.918z"/>
			</g>
		</g>
		<g>
			<rect x="318.711" y="247.281" style="fill:#0E1165;" width="157.484" height="144.885"/>
			<rect x="313.396" y="241.966" style="fill:#E2654D;" width="157.484" height="144.885"/>
			<rect x="308.475" y="237.045" style="fill:#E8BBC7;" width="157.484" height="144.885"/>
			
				<rect x="314.906" y="242.962" style="fill:none;stroke:#FFFFFF;stroke-width:1.0747;stroke-linecap:round;stroke-miterlimit:10;" width="144.622" height="133.052"/>
			<path style="fill:#FFFFFF;" d="M334.316,366.875L334.316,366.875c4.94,0,8.945-4.005,8.945-8.945v-69.705
				c0-4.94-4.005-8.945-8.945-8.945h0c-4.94,0-8.945,4.005-8.945,8.945v69.705C325.371,362.87,329.376,366.875,334.316,366.875z"/>
			<path style="fill:#FFFFFF;" d="M361.368,366.875L361.368,366.875c4.94,0,8.945-4.005,8.945-8.945v-81.538
				c0-4.94-4.005-8.945-8.945-8.945l0,0c-4.94,0-8.945,4.005-8.945,8.945v81.538C352.423,362.87,356.428,366.875,361.368,366.875z"
				/>
			<path style="fill:#FFFFFF;" d="M388.42,366.875L388.42,366.875c4.94,0,8.945-4.005,8.945-8.945v-98.582
				c0-4.94-4.005-8.945-8.945-8.945l0,0c-4.94,0-8.945,4.005-8.945,8.945v98.582C379.475,362.87,383.48,366.875,388.42,366.875z"/>
			<path style="fill:#FFFFFF;" d="M415.472,366.875L415.472,366.875c4.94,0,8.945-4.005,8.945-8.945v-62.767
				c0-4.94-4.005-8.945-8.945-8.945l0,0c-4.94,0-8.945,4.005-8.945,8.945v62.767C406.527,362.87,410.532,366.875,415.472,366.875z"
				/>
			<path style="fill:#E2654D;" d="M442.524,366.875L442.524,366.875c4.94,0,8.945-4.005,8.945-8.945v-98.582
				c0-4.94-4.005-8.945-8.945-8.945l0,0c-4.94,0-8.945,4.005-8.945,8.945v98.582C433.579,362.87,437.584,366.875,442.524,366.875z"
				/>
		</g>
		<g>
			<path style="fill:#0E1165;" d="M49.671,451.126h119.195c4.299,0,7.783-3.485,7.783-7.783v-71.44H41.888v71.44
				C41.888,447.641,45.373,451.126,49.671,451.126z"/>
			<path style="fill:#8EA6FF;" d="M49.671,449.386h119.195c4.299,0,7.783-3.485,7.783-7.783v-71.44H41.888v71.44
				C41.888,445.901,45.373,449.386,49.671,449.386z"/>
			<path style="fill:#E2654D;" d="M41.888,370.162h134.762v-2.878c0-4.299-3.485-7.784-7.783-7.784H49.671
				c-4.299,0-7.784,3.485-7.784,7.784V370.162z"/>
			<path style="fill:#FDFFFF;" d="M57.169,365c0,1.919-1.556,3.476-3.475,3.476c-1.92,0-3.476-1.556-3.476-3.476
				s1.556-3.475,3.476-3.475C55.613,361.525,57.169,363.081,57.169,365z"/>
			<path style="fill:#3459CC;" d="M66.603,365c0,1.919-1.556,3.476-3.476,3.476c-1.919,0-3.475-1.556-3.475-3.476
				s1.556-3.475,3.475-3.475C65.047,361.525,66.603,363.081,66.603,365z"/>
			<path style="fill:#0E1165;" d="M76.036,365c0,1.919-1.556,3.476-3.476,3.476c-1.919,0-3.476-1.556-3.476-3.476
				s1.556-3.475,3.476-3.475C74.48,361.525,76.036,363.081,76.036,365z"/>
			<rect x="49.633" y="417.81" style="fill:#FDFFFF;" width="43.266" height="22.288"/>
			<rect x="99.904" y="378.032" style="fill:#FDFFFF;" width="70.33" height="5.042"/>
			<rect x="99.904" y="387.536" style="fill:#FDFFFF;" width="70.33" height="5.042"/>
			<rect x="99.904" y="397.04" style="fill:#FDFFFF;" width="70.33" height="5.042"/>
			<rect x="99.904" y="406.544" style="fill:#FDFFFF;" width="70.33" height="5.042"/>
			<rect x="99.904" y="416.048" style="fill:#FDFFFF;" width="70.33" height="5.042"/>
			<rect x="99.904" y="425.552" style="fill:#FDFFFF;" width="70.33" height="5.042"/>
			<rect x="99.904" y="435.056" style="fill:#FDFFFF;" width="70.33" height="5.042"/>
		</g>
		<g>
			<g>
				<path style="fill:#D18491;" d="M249.138,373.62c18.018,0,27.511-25.561,31.036-37.852c-4.576-1.073-7.652-1.9-8.313-2.414
					c-3.255-2.531-3.255-26.039-3.255-26.039l-17.902,2.513l-17.902-2.513c0,0,0,23.507-3.255,26.039
					c-0.678,0.527-3.899,1.384-8.669,2.497C223.625,348.434,231.344,373.62,249.138,373.62z"/>
				<path style="fill:#3459CC;" d="M348.168,355.775c-8.935-7.782-50.03-15.794-67.995-20.008
					c-3.524,12.291-13.018,37.852-31.036,37.852c-17.793,0-25.513-25.185-28.259-37.769c-18.144,4.235-58.761,12.193-67.639,19.925
					c-11.211,9.765-33.272,113.919-33.272,113.919h128.024h5.425H381.44C381.44,469.695,359.38,365.54,348.168,355.775z"/>
			</g>
			<path style="fill:#D18491;" d="M399.758,361.923l7.595,107.771h-35.676c0,0,4.213-114.643,4.575-115.728
				c0,0,4.283-94.718,10.488-94.029c1.627,0.181,4.167,4.547,4.382,8.307c0.617,10.803-1.235,31.792-1.235,31.792
				s19.636-2.126,31.932,12.702s-13.019,31.464-13.019,31.464L399.758,361.923z"/>
			<g>
				<path style="fill:#0E1165;" d="M187.432,248.533c-6.945-0.15-13.656-4.357-16.818-10.542
					c-3.162-6.186-2.643-14.088,1.302-19.806c-5.596-4.991-7.556-13.618-6.046-20.963c1.511-7.344,7.144-13.696,14.256-16.073
					c-0.858-5.021,2.212-11.545,6.027-14.921c5.43-4.807,13.571-6.314,20.362-3.772c1.999-7.536,7.586-14.706,15.2-16.385
					c7.614-1.678,16.056,1.217,21.038,7.215c5.297-6.657,14.31-11.907,22.701-10.501c8.391,1.405,15.686,8.951,15.698,17.458
					c7.055-2.881,15.711-1.939,21.996,2.37c6.285,4.309,9.929,12.395,8.439,19.868c2.28-0.212,4.384,0.504,6.435,1.521
					c5.02,2.49,9.036,6.94,10.999,12.188c1.963,5.249,1.854,11.241-0.299,16.415c4.159,4.145,6.528,10.656,5.873,16.492
					c-0.384,3.424-1.667,6.692-3.26,9.747c-3.149,6.037-8.006,11.698-14.59,13.435"/>
				<path style="fill:#D18491;" d="M304.334,243.62c0,29.619-18.738,74.361-53.63,74.361c-34.892,0-53.63-44.742-53.63-74.361
					s24.011-64.013,53.63-64.013S304.334,214.002,304.334,243.62z"/>
				<g>
					<path style="fill:#D18491;" d="M253.53,287.639c-3.799-0.28-7.694,0.19-11.238,1.552c2.179,2.307,5.172,4.342,8.958,4.342
						c3.727,0,6.685-2.192,8.855-4.706C257.955,288.226,255.759,287.804,253.53,287.639z"/>
					<path style="fill:#0E1165;" d="M253.53,287.639c2.229,0.164,4.424,0.587,6.575,1.188c2.923-3.386,4.415-7.358,4.415-7.358
						s-4.652,2.755-12.529,2.755c-7.877,0-14.012-1.548-14.012-1.548s1.457,3.492,4.313,6.516
						C245.836,287.829,249.731,287.359,253.53,287.639z"/>
				</g>
				<g>
					<path style="fill:#0E1165;" d="M222.103,306.491c2.049,1.767,4.299,3.238,6.645,4.498c2.339,1.268,4.78,2.32,7.285,3.156
						c2.527,0.761,5.066,1.487,7.684,1.812c1.292,0.248,2.615,0.296,3.919,0.456c1.313,0.06,2.633,0.108,3.945,0.108
						c2.619-0.06,5.247-0.231,7.809-0.791c2.588-0.439,5.088-1.277,7.534-2.243c2.443-0.983,4.789-2.235,7.002-3.708
						c2.227-1.456,4.323-3.139,6.208-5.08c-1.489,2.272-3.43,4.238-5.529,5.995c-2.12,1.737-4.438,3.265-6.938,4.444
						c-4.959,2.465-10.539,3.608-16.069,3.702c-5.52,0.035-11.066-0.963-16.189-3.002c-2.561-1.021-4.99-2.347-7.255-3.884
						C225.913,310.389,223.791,308.621,222.103,306.491z"/>
				</g>
				<path style="fill:#0E1165;" d="M237.203,247.344c0,3.364-2.727,6.091-6.091,6.091s-6.091-2.727-6.091-6.091
					s2.727-6.091,6.091-6.091S237.203,243.98,237.203,247.344z"/>
				<path style="fill:#0E1165;" d="M262.523,247.344c0,3.364,2.727,6.091,6.091,6.091c3.364,0,6.091-2.727,6.091-6.091
					s-2.727-6.091-6.091-6.091C265.251,241.253,262.523,243.98,262.523,247.344z"/>
				<g>
					<path style="fill:#0E1165;" d="M213.123,242.802c0.382-1.455,0.961-2.882,1.724-4.231c0.768-1.347,1.739-2.578,2.804-3.735
						c1.078-1.149,2.309-2.144,3.6-3.066c1.307-0.902,2.716-1.645,4.171-2.303c2.893-1.265,6.031-2.643,9.439-2.162
						c1.672,0.198,3.366,0.713,4.872,1.603c1.493,0.895,2.805,2.199,3.397,3.822l-0.38,0.429c-1.616-0.308-2.935-0.416-4.237-0.393
						c-1.29,0.016-2.527,0.12-3.78,0.264c-1.249,0.142-2.504,0.234-3.823,0.286c-1.315,0.036-2.671,0.13-3.969,0.473
						c-1.298,0.33-2.595,0.738-3.826,1.302c-1.244,0.534-2.48,1.147-3.61,1.926c-1.146,0.757-2.237,1.628-3.223,2.63
						c-0.974,1.01-1.861,2.133-2.631,3.373L213.123,242.802z"/>
				</g>
				<g>
					<path style="fill:#0E1165;" d="M288.423,243.02c-0.769-1.24-1.657-2.363-2.631-3.373c-0.986-1.002-2.076-1.873-3.223-2.63
						c-1.13-0.78-2.366-1.392-3.61-1.926c-1.231-0.564-2.528-0.972-3.826-1.302c-1.298-0.343-2.653-0.437-3.969-0.473
						c-1.319-0.052-2.575-0.144-3.823-0.286c-1.253-0.144-2.489-0.248-3.78-0.264c-1.302-0.023-2.622,0.085-4.237,0.393l-0.38-0.429
						c0.592-1.624,1.904-2.927,3.397-3.822c1.505-0.89,3.199-1.405,4.872-1.603c3.409-0.482,6.547,0.897,9.439,2.162
						c1.455,0.658,2.864,1.402,4.171,2.303c1.291,0.923,2.522,1.918,3.6,3.066c1.065,1.158,2.036,2.389,2.804,3.735
						c0.763,1.349,1.342,2.776,1.724,4.231L288.423,243.02z"/>
				</g>
				<path style="fill:#0E1165;" d="M192.454,257.849c2.032-0.024,3.768-1.441,5.148-2.932c7.271-7.853,9.397-19.221,9.294-29.923
					c4.514,1.408,9.999,1.272,14.099-1.083c4.1-2.355,7.147-6.471,8.204-11.079c3.656,3.078,9.39,4.846,14.128,4.222
					c4.738-0.625,9.166-3.319,11.899-7.239c5.855,6.106,15.61,9.16,23.446,5.972c2.553,5.47,8.391,9.658,14.252,11.1
					c0.999,5.669,0.489,12.405,2.811,17.673c2.322,5.267,6.086,10.109,11.276,12.598c2.927-12.735,1.302-26.516-2.532-39.007
					c-2.187-7.125-4.696-14.237-8.709-20.517c-9.528-14.911-27.032-23.681-44.677-25.016c-5.437-0.411-11.008-0.169-16.166,1.603
					c-8.279,2.843-14.804,9.384-19.797,16.574C202.018,209.678,194.52,234.951,192.454,257.849z"/>
				<g>
					<g>
						<g>
							<g>
								<path style="fill:#D18491;" d="M323.905,258.276c-1.305,6.116-5.453,11.563-11.095,14.568
									c-1.766,0.941-3.722,1.661-5.756,1.645c-4.588-0.036-8.49-3.958-9.62-8.267c-1.13-4.31-0.035-8.838,1.614-12.937
									c2.13-5.297,5.922-10.737,11.768-11.593C320.24,240.315,325.521,250.7,323.905,258.276z"/>
								<path style="fill:#D18491;" d="M302.018,268.706c2.034-0.431,3.925-1.425,5.391-2.836c0.295-0.284,0.582-0.601,0.675-0.995
									c0.178-0.752-0.395-1.472-0.929-2.061c-1.08-1.19-2.161-2.38-3.241-3.569c-0.216-0.238-0.439-0.49-0.508-0.797
									c-0.076-0.338,0.049-0.681,0.171-1.001c1.565-4.087,3.388-8.48,7.288-10.659c1.053-0.589,2.258-0.991,3.484-0.919
									c1.821,0.107,3.461,1.256,4.542,2.691c1.081,1.435,1.689,3.138,2.247,4.821c0,0,0.401,9.038-6.4,13.938
									C307.937,272.219,302.018,268.706,302.018,268.706z"/>
							</g>
							<g>
								<path style="fill:#0E1165;" d="M321.137,253.381c-0.799-1.685-1.581-3.401-2.792-4.68c-1.178-1.279-2.787-2.126-4.363-2.021
									c-0.814,0.039-1.606,0.246-2.219,0.619c-0.282,0.171-0.602,0.46-0.915,0.757c-0.308,0.298-0.605,0.615-0.889,0.948
									c-1.15,1.325-2.163,2.829-3.075,4.393c-0.468,0.776-0.918,1.567-1.343,2.371l-0.622,1.214l-0.296,0.612l-0.142,0.303
									l-0.057,0.119c-3.438-1.994-1.146-0.246-1.837-0.808c-0.007,0.015-0.009,0.019-0.006,0.013l0.006-0.012l0.016-0.034
									l0.034-0.074l0.044-0.095l0.007-0.015c0.02-0.044,0.056-0.111,0.091-0.162c0.125-0.121-0.121,0.046,0.32-0.299
									c2.93,1.088,0.824,1.277,1.469,1.115l-0.025,0.084l-0.053,0.16l-0.082,0.274l-0.041,0.182c0,0,0-0.011-0.003-0.016
									c0.002-0.024-0.015-0.09-0.015-0.09c-0.003-0.004-0.003,0-0.002,0.007c-0.015,0.064,0.383,0.505,0.672,0.843
									c0.611,0.701,1.207,1.414,1.799,2.132l0.891,1.073c0.308,0.376,0.648,0.786,0.878,1.35c0.112,0.282,0.194,0.612,0.178,0.966
									c-0.015,0.352-0.145,0.709-0.322,0.966c-0.366,0.524-0.756,0.785-1.138,1.09c-1.569,1.161-3.419,1.884-5.288,2.044
									c1.764-0.617,3.363-1.564,4.612-2.83c0.306-0.311,0.649-0.652,0.772-0.924c0.122-0.267,0.078-0.44-0.074-0.736
									c-0.324-0.556-1.097-1.225-1.731-1.891c-0.658-0.658-1.31-1.32-1.949-1.995l-0.485-0.507c-0.17-0.186-0.4-0.42-0.583-0.814
									c-0.044-0.1-0.084-0.205-0.113-0.323c-0.016-0.06-0.035-0.182-0.04-0.263l-0.001-0.19c0.011-0.217,0.04-0.359,0.068-0.506
									l0.095-0.4l0.048-0.174c0.006-0.02,0.002-0.011-0.001,0c0.647-0.169-1.458,0.013,1.472,1.093
									c0.442-0.355,0.19-0.17,0.313-0.288c0.032-0.044,0.065-0.105,0.082-0.142l-0.002,0.005l-0.025,0.065l-0.034,0.086
									l-0.019,0.046l-0.012,0.027l-0.015,0.033c-0.694-0.557,1.591,1.205-1.842-0.801l0.082-0.201l0.146-0.331l0.299-0.649
									l0.626-1.278c0.429-0.846,0.88-1.681,1.362-2.502c0.996-1.622,2.07-3.216,3.412-4.653c0.338-0.356,0.696-0.7,1.075-1.028
									c0.379-0.32,0.763-0.649,1.29-0.939c1.009-0.549,2.106-0.703,3.143-0.658c1.058,0.029,2.137,0.374,2.995,0.932
									c0.87,0.556,1.594,1.276,2.165,2.086C320.271,249.701,320.774,251.556,321.137,253.381z"/>
							</g>
						</g>
					</g>
					<g>
						<g>
							<g>
								<path style="fill:#D18491;" d="M177.503,258.276c1.305,6.116,5.453,11.563,11.095,14.568
									c1.766,0.941,3.722,1.661,5.756,1.645c4.588-0.036,8.49-3.958,9.62-8.267c1.13-4.31,0.035-8.838-1.614-12.937
									c-2.13-5.297-5.923-10.737-11.768-11.593C181.168,240.315,175.887,250.7,177.503,258.276z"/>
								<path style="fill:#D18491;" d="M199.39,268.706c-2.034-0.431-3.925-1.425-5.391-2.836c-0.295-0.284-0.582-0.601-0.675-0.995
									c-0.178-0.752,0.395-1.472,0.929-2.061c1.08-1.19,2.161-2.38,3.242-3.569c0.216-0.238,0.439-0.49,0.508-0.797
									c0.076-0.338-0.049-0.681-0.171-1.001c-1.565-4.087-3.389-8.48-7.288-10.659c-1.052-0.589-2.257-0.991-3.483-0.919
									c-1.821,0.107-3.461,1.256-4.542,2.691c-1.081,1.435-1.689,3.138-2.247,4.821c0,0-0.4,9.038,6.4,13.938
									C193.471,272.219,199.39,268.706,199.39,268.706z"/>
							</g>
							<g>
								<path style="fill:#0E1165;" d="M180.271,253.381c0.358-1.809,0.853-3.645,1.952-5.281c1.101-1.586,2.88-2.961,5.089-3.059
									c1.078-0.049,2.127,0.208,3.058,0.623c0.935,0.415,1.781,0.958,2.558,1.597c1.552,1.287,2.693,2.937,3.614,4.616
									c0.899,1.703,1.577,3.46,2.216,5.197c0.076,0.223,0.189,0.508,0.232,0.904c0.061,0.384-0.068,0.947-0.28,1.259
									c-0.435,0.641-0.717,0.819-1.041,1.191c-0.633,0.668-1.279,1.325-1.931,1.976c-0.63,0.66-1.394,1.317-1.681,1.862
									c-0.137,0.286-0.167,0.445-0.03,0.724c0.141,0.275,0.484,0.615,0.787,0.92c1.243,1.248,2.826,2.184,4.574,2.797
									c-1.852-0.155-3.685-0.867-5.246-2.008c-0.384-0.301-0.76-0.558-1.133-1.051c-0.402-0.483-0.476-1.358-0.231-1.91
									c0.212-0.58,0.548-0.995,0.855-1.375l0.885-1.067c0.586-0.711,1.177-1.418,1.781-2.112c0.273-0.327,0.686-0.77,0.744-0.91
									c0.027-0.083,0.001,0.006-0.003-0.067c-0.011-0.062-0.063-0.213-0.151-0.418c-0.686-1.694-1.356-3.374-2.208-4.913
									c-0.81-1.56-1.806-2.988-3.057-4.105c-1.225-1.131-2.77-1.997-4.304-2.088c-1.528-0.072-3.136,0.784-4.289,2.057
									C181.839,250.014,181.065,251.712,180.271,253.381z"/>
							</g>
						</g>
					</g>
				</g>
				<g>
					<path style="fill:#0E1165;" d="M250.559,241.13c0.313,4.182,1.916,8.047,4.482,10.968c1.303,1.443,2.873,2.762,4.394,4.359
						c1.52,1.576,2.792,3.753,3.287,6.033c0.467,2.293,0.32,4.679-0.417,6.881c-0.779,2.176-2.158,4.198-4.038,5.548
						c-1.856,1.366-4.066,2.105-6.264,2.272c-2.201,0.118-4.423-0.346-6.215-1.467c4.061,1.09,8.28-0.049,11.074-2.542
						c2.76-2.495,3.855-6.523,3.064-10.087c-0.366-1.807-1.23-3.36-2.517-4.849c-1.233-1.521-2.832-2.939-4.113-4.767
						C250.697,249.87,249.672,245.255,250.559,241.13z"/>
				</g>
			</g>
			<path style="fill:none;stroke:#FFFFFF;stroke-width:1.045;stroke-linecap:round;stroke-miterlimit:10;" d="M190.325,225.013
				c-0.977-3.275-0.519-6.951,1.231-9.886c1.75-2.936,4.765-5.087,8.111-5.786c-0.41-6.546,3.475-12.909,9.784-14.704"/>
			<path style="fill:none;stroke:#FFFFFF;stroke-width:1.045;stroke-linecap:round;stroke-miterlimit:10;" d="M205.027,176.472
				c6.384-3.253,14.845-1.747,19.714,3.509c4.456-3.591,11.968-2.506,15.88,1.671"/>
			<path style="fill:none;stroke:#FFFFFF;stroke-width:1.045;stroke-linecap:round;stroke-miterlimit:10;" d="M255.99,160.749
				c3.81-1.14,8.086-0.617,11.509,1.408c3.423,2.024,5.942,5.52,6.778,9.408c5.395-0.783,10.829,2.819,13.258,7.699"/>
			<path style="fill:none;stroke:#FFFFFF;stroke-width:1.045;stroke-linecap:round;stroke-miterlimit:10;" d="M261.372,190.437
				c6.944-1.357,14.565,2.666,17.363,9.165c5.822-1.062,12.307,3.32,13.659,9.081"/>
			<path style="fill:none;stroke:#FFFFFF;stroke-width:1.045;stroke-linecap:round;stroke-miterlimit:10;" d="M307.433,199.831
				c5.832,2.262,9.065,9.644,6.774,15.464c3.596,2.278,4.042,8.513,2.11,12.305"/>
			<path style="fill:none;stroke:#0E1165;stroke-width:2.0605;stroke-linecap:round;stroke-miterlimit:10;" d="M377.239,331.679
				c2.262-5.144,4.443-16.138,7.7-20.717c3.249-4.568,8.574-7.104,13.664-9.451c0.885-0.408,2.08-0.756,2.707-0.011
				c0.261,0.31,0.334,0.733,0.375,1.136c0.564,5.473-2.899,10.534-6.729,14.483c-0.553,0.57-1.159,1.235-1.104,2.027
				c0.032,0.458,0.284,0.866,0.52,1.259c3.522,5.866,4.83,13.134,3.06,19.744c-1.77,6.609-6.743,12.394-13.198,14.664"/>
			<path style="fill:none;stroke:#0E1165;stroke-width:2.0605;stroke-linecap:round;stroke-miterlimit:10;" d="M410.262,343.137
				c-4.028,2.697-9.923,2.14-13.374-1.265"/>
			<path style="fill:none;stroke:#0E1165;stroke-width:2.0605;stroke-linecap:round;stroke-miterlimit:10;" d="M418.164,309.103
				c-2.077,12.649-7.309,24.768-15.091,34.955c-0.16,0.209-0.385,0.442-0.64,0.378c-0.255-0.064-0.148-0.586,0.073-0.443"/>
			<path style="fill:none;stroke:#0E1165;stroke-width:2.0605;stroke-linecap:round;stroke-miterlimit:10;" d="M408.331,303.346
				c-1.448,9.668-5.952,18.571-10.392,27.281"/>
			<path style="fill:none;stroke:#0E1165;stroke-width:2.0605;stroke-linecap:round;stroke-miterlimit:10;" d="M212.093,338.668
				c0,0,7.445,42.619,36.982,42.619s38.04-42.515,38.04-42.515"/>
			<path style="fill:none;stroke:#0E1165;stroke-width:2.0605;stroke-linecap:round;stroke-miterlimit:10;" d="M167.463,368.437
				c-0.483,33.635,2.486,67.32,8.847,100.352"/>
			<path style="fill:none;stroke:#0E1165;stroke-width:2.0605;stroke-linecap:round;stroke-miterlimit:10;" d="M321.568,368.437
				c0.483,33.635-2.486,67.32-8.847,100.352"/>
		</g>
		<g>
			<path style="fill:#8EA6FF;" d="M161.214,463.175h178.98V364.66c0-4.135-3.352-7.487-7.487-7.487H168.701
				c-4.135,0-7.487,3.352-7.487,7.487V463.175z"/>
			<path style="fill:none;stroke:#3459CC;stroke-width:1.9334;stroke-linecap:round;stroke-miterlimit:10;" d="M168.61,460.672
				h164.187v-90.373c0-3.793-3.075-6.868-6.868-6.868h-150.45c-3.793,0-6.868,3.075-6.868,6.868V460.672z"/>
			<circle style="fill:#FDFFFF;" cx="250.704" cy="413.651" r="18.101"/>
			<path style="fill:#0E1165;" d="M262.101,357.188h-22.794c-2.635,0-4.771-2.136-4.771-4.771l0,0c0-2.635,2.136-4.771,4.771-4.771
				h22.794c2.635,0,4.771,2.136,4.771,4.771l0,0C266.871,355.052,264.736,357.188,262.101,357.188z"/>
			<path style="fill:#FDFFFF;" d="M154.694,469.695h192.019v-1.844c0-4.429-3.59-8.019-8.019-8.019H162.713
				c-4.429,0-8.019,3.59-8.019,8.019V469.695z"/>
			<path style="fill:#FDFFFF;" d="M244.479,352.168c0,1.613-1.308,2.921-2.921,2.921c-1.613,0-2.921-1.308-2.921-2.921
				c0-1.613,1.308-2.921,2.921-2.921C243.171,349.246,244.479,350.554,244.479,352.168z"/>
			<path style="fill:#8EA6FF;" d="M250.175,354.505h10.663c1.21,0,2.191-0.981,2.191-2.191l0,0c0-1.21-0.981-2.191-2.191-2.191
				h-10.663c-1.21,0-2.191,0.981-2.191,2.191l0,0C247.984,353.524,248.965,354.505,250.175,354.505z"/>
			
				<circle style="fill:none;stroke:#3459CC;stroke-width:1.9334;stroke-linecap:round;stroke-miterlimit:10;" cx="250.704" cy="413.651" r="23.26"/>
		</g>
		<g>
			
				<line style="fill:none;stroke:#0E1165;stroke-width:1.9884;stroke-linecap:round;stroke-miterlimit:10;" x1="55.487" y1="468.688" x2="405.598" y2="468.688"/>
			
				<line style="fill:none;stroke:#0E1165;stroke-width:1.9884;stroke-linecap:round;stroke-miterlimit:10;" x1="412.886" y1="468.688" x2="431.171" y2="468.688"/>
			
				<line style="fill:none;stroke:#0E1165;stroke-width:1.9884;stroke-linecap:round;stroke-miterlimit:10;" x1="439.595" y1="468.688" x2="486.393" y2="468.688"/>
			
				<line style="fill:none;stroke:#0E1165;stroke-width:1.9884;stroke-linecap:round;stroke-miterlimit:10;" x1="34.521" y1="468.688" x2="48.618" y2="468.688"/>
		</g>
		<g>
			<g>
				<g>
					
						<ellipse transform="matrix(0.7071 -0.7071 0.7071 0.7071 -172.2436 181.6268)" style="fill:#0E1165;" cx="133.121" cy="298.73" rx="41.951" ry="41.951"/>
					<path style="fill:#0E1165;" d="M171.904,302.891c10.859,2.75,22.736,1.253,32.573-4.107
						c-9.995,10.207-22.294,18.028-36.489,19.632"/>
				</g>
			</g>
			<polyline style="fill:none;stroke:#E2654D;stroke-width:12.1441;stroke-linecap:round;stroke-miterlimit:10;" points="
				108.683,299.794 125.886,316.997 170.667,272.216 			"/>
		</g>
	</g>
</g>
<g id="TEXT">
	<text transform="matrix(1 0 0 1 54.7964 393.9295)"><tspan x="0" y="0" style="fill:#FDFFFF; font-family:'Exo2-Black'; font-size:19.1649px;">Dev</tspan><tspan x="0.019" y="16.42" style="fill:#FDFFFF; font-family:'Exo2-Black'; font-size:19.1649px;">Ops</tspan></text>
</g>
</svg>
