<?xml version="1.0" encoding="utf-8"?>
<!-- Generator: Adobe Illustrator 27.5.0, SVG Export Plug-In . SVG Version: 6.00 Build 0)  -->
<svg version="1.1" xmlns="http://www.w3.org/2000/svg" xmlns:xlink="http://www.w3.org/1999/xlink" x="0px" y="0px"
	 viewBox="0 0 1100 800" style="enable-background:new 0 0 1100 800;" xml:space="preserve">
<g id="Background">
	<rect style="fill:#8EC3CB;" width="1100" height="800"/>
</g>
<g id="Shadow">
	<g style="opacity:0.4;">
		<path style="fill:#F1F2F2;" d="M521.964,644.118c-28.193,0.084-56.385,0.762-84.528,3.892c-10.611,1.18-21,3.776-31.635,4.823
			c-21.244,2.092-42.107,5.993-63.426,7.793c-17.168,1.449-34.408,2.305-51.526,4.143c-16.049,1.724-33.816,1.326-49.742-1.522
			c-11.79-2.109-23.633-3.296-35.225-6.682c-12.967-3.789-27.055-6.498-40.565-6.4c-19.266,0.139-38.028,0.155-56.466,6.845
			c-6.472,2.348-14.395,6.209-19.31,11.137c-11.251,11.282-12.774,39.432-1.54,51.133c18.921,19.693,59.305,27.42,85.827,27.785
			c29.063,0.4,57.296-1.758,86.402-3.026c27.045-1.179,54.023-2.856,81.113-2.797c55.328,0.121,110.664,0,165.893-3.696
			c51.888-3.472,103.907-2.28,155.909-2.28c53.326,0,106.291,0.419,159.233,7.506c23.067,3.088,46.568,4.169,69.75,6.332
			c20.762,1.938,40.714-0.038,61.394-1.829c17.365-1.504,34.616-5.964,50.391-13.503c12.487-5.968,34.749-24.507,38.579-38.752
			c10.736-39.935-151.3-38.975-176.179-38.885c-27.831,0.101-55.884,1.016-83.693-0.045c-11.698-0.446-23.224-2.733-34.641-5.238
			c-11.372-2.495-22.83-1.861-34.362-2.91c-48.092-4.374-96.291-3.734-144.536-3.734
			C553.379,644.209,537.671,644.071,521.964,644.118z"/>
	</g>
</g>
<g id="Object">
	<g>
		<g id="XMLID_287_">
			<g id="XMLID_288_">
				<g id="XMLID_289_">
					
						<ellipse transform="matrix(0.9081 -0.4187 0.4187 0.9081 -50.9491 159.1038)" style="fill:#474EBB;" cx="337.024" cy="195.633" rx="67.3" ry="67.3"/>
				</g>
			</g>
		</g>
		<g>
			<g>
				<path style="fill:#FFFFFF;" d="M370.228,209.845c-5.249,0-9.789,3.074-11.901,7.508l-28.433-3.837
					c-0.224-5.138-2.523-9.749-6.082-13.022l16.075-23.127c1.883,0.797,3.952,1.238,6.124,1.238c8.654,0,15.695-7.008,15.695-15.623
					c0-8.615-7.041-15.623-15.695-15.623c-8.655,0-15.695,7.009-15.695,15.623c0,3.687,1.29,7.079,3.444,9.754l-16.545,23.804
					c-1.956-0.682-4.057-1.054-6.245-1.054c-10.445,0-18.943,8.459-18.943,18.856c0,10.397,8.498,18.856,18.943,18.856
					c7.972,0,14.809-4.928,17.6-11.883l28.687,3.872c1.07,6.162,6.479,10.864,12.97,10.864c7.258,0,13.163-5.878,13.163-13.103
					S377.486,209.845,370.228,209.845z"/>
			</g>
		</g>
	</g>
	<g>
		<g>
			<path style="fill:#EACDB0;" d="M358.984,256.622c-0.253-0.288-0.508-0.593-0.611-0.964c-0.3-1.082,0.76-2.026,1.245-3.048
				c0.31-0.653,0.387-1.386,0.459-2.103c0.125-1.234,0.249-2.467,0.374-3.701c0.021-0.207,0.041-0.424-0.037-0.616
				c-0.071-0.175-0.214-0.308-0.355-0.431c-1.478-1.29-3.392-2.225-5.358-2.036c-1.912,0.185-3.6,1.403-4.892,2.844
				c-0.828,0.924-1.536,1.954-2.101,3.058c-0.176,0.343-0.341,0.707-0.346,1.09c-0.004,0.314,0.099,0.617,0.211,0.909
				c0.708,1.838,1.817,3.514,3.228,4.878c0.8,0.773,1.712,1.467,2.26,2.439c0.384,0.681,0.564,1.456,0.77,2.212
				c0.414,1.516,0.954,2.996,1.611,4.42c0.131,0.284,4.915-4.019,5.29-4.46C362.454,259.092,360.418,258.257,358.984,256.622z"/>
		</g>
		<g>
			<path style="fill:#D34E4E;" d="M387.922,325.69c1.137,1.084,2.293,2.122,3.466,3.106c1.287,1.081,2.622,2.165,4.207,2.731
				c1.5,0.537,3.138,0.576,4.736,0.478c6.959-0.431,16.896-4.09,15.618-12.504c-0.383-2.522-1.857-4.712-3.364-6.752
				c-4.158-5.63-8.853-10.832-13.539-16.023c-12.531-13.881-25.062-27.762-37.592-41.643c-3.298,2.378-6.596,4.756-9.894,7.134
				c-2.691,1.94,10.467,27.513,12.05,30.365C369.933,303.976,378.266,316.489,387.922,325.69z"/>
		</g>
	</g>
	<g>
		<path style="fill:#D34E4E;" d="M394.794,279.742c1.817-1.24,4.025-2.366,6.197-3.366c17.51-8.055,37.042-11.742,56.281-10.429
			c13.138,0.897,26.024,4.035,38.648,7.78c4.88,1.448,9.827,3.034,13.953,6.015c4.126,2.981,7.363,7.625,7.407,12.715
			c-33.825,3.558-66.677,6.502-100.846,4.947c-6.557-0.298-14.97-2.71-20.611-5.973C388.007,286.912,390.1,282.945,394.794,279.742z
			"/>
	</g>
	<g>
		<g>
			<path style="fill:#EACDB0;" d="M449.59,275.592c0.62-0.286,1.171-0.684,1.593-1.242c0.102-0.134,0.196-0.28,0.227-0.446
				c0.037-0.195-0.016-0.394-0.068-0.585c-0.2-0.73-2.254-6.38-1.796-6.666c3.519-1.983,6.522-5.319,8.259-8.767
				c3.245-6.44,3.415-13.793,2.782-20.713c-0.909-9.946-4.311-20.849-13.399-24.493c-6.969-2.796-15.715,0.248-21.333,5.54
				c-7.224,6.806-6.116,18.02-4.59,26.666c1.091,6.182,3.708,12.314,7.995,16.91c2.154,2.31,4.749,4.199,7.673,5.367
				c1.42,0.567,2.744,0.451,3.167,1.883c0.524,1.774,0.268,4.407,0.434,6.297c0.028,0.313,0.075,0.664,0.322,0.853
				c0.178,0.136,0.415,0.151,0.637,0.16c1.523,0.06,3.049,0.046,4.57-0.042C447.253,276.243,448.525,276.083,449.59,275.592z"/>
		</g>
		<g>
			<path style="fill:#3B455A;" d="M451.47,226.311c3.546,2.112,7.021,5.703,6.371,9.823c1.861-0.937,4.173,0.899,4.442,2.988
				c0.269,2.089-0.877,4.098-2.208,5.715c2.077,0.355,4.115-1.164,5.062-3.073c0.947-1.909,1.041-4.123,1.078-6.259
				c0.108-6.336-0.163-12.843-2.568-18.692c-2.405-5.849-7.335-10.977-13.502-11.984c-1.901-0.31-3.844-0.226-5.758-0.016
				c-1.555,0.171-3.141,0.439-4.494,1.234C428.865,212.52,446.88,223.577,451.47,226.311z"/>
		</g>
		<g>
			<path style="fill:#3B455A;" d="M425.979,238.793c-1.827,4.931,2.553,10.355,1.419,15.496c-0.705,3.196-3.472,5.807-3.464,9.082
				c0.01,4.229,4.633,7.336,4.685,11.565c-2.648-3.371-7.713-4.19-10.013-7.814c-0.948-1.493-1.297-3.286-1.958-4.931
				c-2.718-6.768-10.055-10.051-16.246-13.788c-0.72-0.435-1.461-0.912-1.884-1.646c-0.936-1.622,0.033-3.635,0.832-5.331
				c2.423-5.141,3.282-11.027,2.432-16.66c-0.809-5.364-3.125-10.702-2.073-16.023c0.936-4.736,4.732-8.764,9.353-9.928
				c4.162-1.048,8.626,0.09,12.795-0.927c2.767-0.675,5.22-2.255,7.799-3.475c5.963-2.822,13.826-3.397,18.461,1.34
				c4.097,4.188,4.127,11.247,1.439,16.48c-1.66,3.232-4.028,6.019-5.71,9.246c-1.292,2.48-2.211,5.198-4.328,7.122
				C435.444,232.304,428.113,233.033,425.979,238.793z"/>
		</g>
	</g>
	<g id="XMLID_284_">
		<g id="XMLID_286_">
			<g>
				<polygon style="fill:#EACDB0;" points="738.008,337.214 729.747,338.751 723.783,334.42 722.216,335.243 723.115,337.22 
					717.128,335.072 712.243,336.875 710.325,343.588 712.968,350.233 719.742,351.361 727.436,348.439 738.828,346.829 				"/>
			</g>
		</g>
		<g id="XMLID_285_">
			<g>
				<path style="fill:#474EBB;" d="M732.798,334.344c8.563-3.463,17.126-6.927,25.689-10.39c5.528-2.236,11.114-4.365,16.595-6.712
					c6.892-2.95,4.965-7.774,9.036-13.884c9.161-13.749,19.487-28.407,35.22-33.449c1.571-0.504,3.254-0.903,4.86-0.521
					c3.038,0.723,4.823,4.114,4.761,7.236c-0.061,3.122-1.522,6.025-2.974,8.79c-7.869,14.991-15.953,33.097-27.057,45.975
					c-4.992,5.789-16.763,6.614-24.174,8.527c-14.993,3.87-29.985,7.74-44.978,11.61L732.798,334.344z"/>
			</g>
		</g>
	</g>
	<g>
		<g id="XMLID_283_">
			<g>
				<polygon style="fill:#41352B;" points="816.634,665.307 816.634,672.273 798.769,681.206 789.836,672.273 798.769,663.34 
					799.921,663.34 800.209,665.307 				"/>
			</g>
		</g>
		<g id="XMLID_282_">
			<g>
				<polygon style="fill:#41352B;" points="860.632,663.34 861.865,663.34 870.798,672.273 861.865,681.206 844,672.273 
					844,665.307 860.426,665.307 				"/>
			</g>
		</g>
		<g>
			<g id="XMLID_281_">
				<g>
					<path style="fill:#474EBB;" d="M759.819,457.566c1.119-11.731,2.281-23.459,3.7-35.157
						c2.831-23.332,6.684-46.609,13.203-69.196c2.49-8.629,5.363-17.137,8.235-25.643c3.497-10.357,6.995-20.715,10.492-31.072
						c4.347-12.873,11.682-21.941,24.528-26.444c2.294-0.804,4.709-1.425,7.198-1.879c0.061,0.266,0.116,0.536,0.15,0.82
						c0.149,1.236,0.497,2.607,1.265,3.504l-8.431,0.082c0,0-23.787,84.538-24.661,99.108c-0.332,5.538-1.438,17.629-2.667,30.366
						l-12.917,1.934l-0.554,48.719c-0.723,0.211-1.442,0.416-2.156,0.608c-4.099,1.106-7.432,4.144-10.838,6.526
						C761.338,463.362,759.133,464.755,759.819,457.566z"/>
				</g>
			</g>
			<g id="XMLID_280_">
				<g>
					<path style="fill:#CCD2D9;" d="M792.832,402.056c-1.946,20.157-4.203,41.934-4.203,41.934s10.443,0.251,25.55,1.397
						c-1.117-0.026-2.235-0.056-3.351-0.066c-10.508-0.095-21.406,4.445-31.467,7.388l0.554-48.719L792.832,402.056z"/>
				</g>
			</g>
			<g id="XMLID_279_">
				<g>
					<path style="fill:#145566;" d="M863.342,451.518c7.203,0.382,8.099-0.975,8.099-0.975s-6.498-26.543-11.061-49.632l20.57,3.08
						l0.267,55.126c-1.745-1.115-3.554-2.175-5.505-3.12C871.802,454.103,867.626,452.66,863.342,451.518z"/>
				</g>
			</g>
			<g>
				<g>
					<path style="fill:#1A3151;" d="M779.361,452.709c10.06-2.943,20.959-7.483,31.467-7.388c1.116,0.01,2.234,0.04,3.351,0.066
						c0.935,0.071,1.888,0.145,2.857,0.223c7.041,0.566,14.953,1.323,23.212,2.325c0.406,0.049,0.81,0.097,1.217,0.148
						c10.565,2.299,17.424,3.198,21.877,3.434c4.284,1.143,8.46,2.586,12.37,4.479c1.951,0.945,3.76,2.005,5.506,3.12l0.055,11.479
						L861.131,665.57h-16.514v1.985h-0.095l-18.158-130.781l-0.075-0.736l-9.948,131.517h-0.095v-1.985h-16.594l-21.047-146.453
						L779.361,452.709z"/>
				</g>
			</g>
			<g id="XMLID_278_">
				<g>
					<path style="fill:#474EBB;" d="M851.387,400.004c-2.352-11.899-4.19-22.882-4.358-28.838
						c-0.506-17.914-2.761-77.076-2.761-77.076l-10.934-22.63l-2.018,0.02c0.145-0.017,0.29-0.035,0.436-0.052
						c-0.475,0.056,0.228-4.373,0.398-4.764c9.507-0.324,21.758,5.038,27.754,12.509c4.437,5.528,7.074,12.286,9.645,18.926
						c7.237,18.695,10.519,36.015,14.13,55.673c2.302,12.535,4.429,25.011,6.103,37.455c1.854,13.781,3.161,27.522,3.54,41.183
						c0.042,1.51,0.341,5.733,0.509,10.778c0.352,10.568,0.126,24.703-4.249,25.231c-0.819,0.099-1.609-0.27-2.33-0.626
						c-5.629-2.781-10.063-6.411-15.026-9.584L859,420L851.387,400.004z"/>
				</g>
			</g>
			<g>
				<g>
					<path style="fill:#F7F7F7;" d="M788.628,443.991c0,0,10.11,0.251,24.735,1.397c0.905,0.071,1.828,0.145,2.766,0.223
						c6.817,0.566,14.476,1.323,22.471,2.325c0.393,0.049,0.783,0.097,1.178,0.148c7.109,1.598,13.833,3.293,21.127,3.719
						c2.75,0.162,5.703,2.436,7.862,0.423c1.818-1.696,1.003-9.029,1.005-11.232c0.007-8.667-1.267-17.277-3.007-25.749
						c-3.617-17.616-9.447-34.776-11.635-52.679c-0.794-6.499-1.092-13.051-1.915-19.546c-1.93-15.218-6.221-29.433-7.71-44.694
						c-0.305-3.126-1.422-26.613-6.87-25.936c-2.691,0.334-5.381,0.669-8.072,1.003c-0.697,0.087-1.421,0.171-2.088-0.06
						c-0.335-0.116-0.626-0.297-0.878-0.527c-0.102-0.093-0.195-0.198-0.284-0.305l-8.162,0.082c0,0-23.028,84.538-23.874,99.108
						c-0.322,5.538-1.391,17.629-2.582,30.366C790.814,422.213,788.628,443.991,788.628,443.991z"/>
				</g>
			</g>
		</g>
	</g>
	<g>
		<g>
			<g>
				<path style="fill:#3B455A;" d="M812.503,215.818c-2.304,4.647-3.262,9.91-3.224,15.114c0.01,1.384-0.002,2.983-1.058,3.855
					c-1.131,0.934-0.001,2.794-0.954,1.674c-0.953-1.12-4.193-5.016-4.404-6.482c-0.495-3.434-0.666-6.916-0.511-10.383
					c0.135-3.015,0.578-6.182,2.393-8.57c1.076-1.416,2.555-2.449,4.013-3.453c2.113-1.455,4.293-2.924,6.775-3.53
					c4.277-1.044,7.006,0.392,3.35,3.655C816.264,210.035,814.082,212.634,812.503,215.818z"/>
			</g>
		</g>
		<g>
			<g>
				<g>
					<path style="fill:#EACDB0;" d="M842.324,273.337c-5.913,0.876-11.826,1.752-17.739,2.628
						c-1.168-5.172-1.967-10.446-2.386-15.755c-5.22-0.632-11.392-2.014-13.441-7.434c-0.645-1.707-0.76-3.595-0.867-5.441
						c-0.442-7.634-0.884-15.268-1.325-22.902c-0.153-2.64-0.297-5.362,0.469-7.86c1.343-4.383,5.179-7.154,8.986-8.971
						c9.715-4.636,21.291-5.078,30.747,0.297c2.517,1.431,4.919,3.314,6.461,5.962c2.377,4.082,2.367,9.276,2.276,14.134
						c-0.084,4.484-0.168,8.969-0.252,13.454c-0.097,5.158-0.556,11.113-4.343,14.033c-2.011,1.55-4.69,1.956-6.391,3.915
						C841.518,262.851,843.26,268.626,842.324,273.337z"/>
				</g>
			</g>
		</g>
		<g>
			<g>
				<path style="fill:#3B455A;" d="M806.769,251.85c1.168,4.705,3.659,9.126,7.598,11.597c4.466,2.8,9.888,2.733,15.014,2.588
					c2.804-0.079,5.607-0.159,8.411-0.238c7.093-0.201,14.094-1.502,17.356-9.28c1.504-3.587,1.832-7.683,1.384-11.614
					c-0.123-1.08-0.315-2.188-0.866-3.096c-0.552-0.908-1.544-1.575-2.52-1.383c-1.247,0.245-1.931,1.659-2.686,2.77
					c-1.646,2.424-4.697,3.888-7.278,2.773c-0.765-0.33-1.438-0.854-2.109-1.384c-0.274-0.217-0.549-0.435-0.828-0.641
					c-2.774-2.041-6.085-2.87-9.366-3.133c-2.847-0.227-7.064-1.068-9.038,1.491c-1.149,1.489-2.298,2.978-3.447,4.466
					c-0.473,0.613-0.958,1.238-1.589,1.648c-0.649,0.422-1.414,0.589-2.17,0.643c-1.901,0.134-4.081-0.647-4.827-2.576
					c-0.325-0.84-0.331-1.777-0.411-2.683c-0.08-0.906-0.263-1.863-0.846-2.516c-2.226-2.499-2.624,1.683-2.637,3.104
					C805.894,246.895,806.167,249.421,806.769,251.85z M826.135,252.154c2.322,1.417,4.674,1.314,7.125,0.421
					c1.259-0.459,1.912,1.693,0.654,2.151c-2.958,1.077-5.935,1.134-8.724-0.569C824.029,253.449,824.967,251.441,826.135,252.154z"
					/>
			</g>
		</g>
		<g>
			<g>
				<path style="fill:#3B455A;" d="M802.751,203.058c-0.588-1.825-1.049-3.692-1.378-5.583c1.764,0.527,3.659,0.593,5.454,0.189
					c-0.051-1.098-0.103-2.197-0.154-3.295c-0.038-0.914,12.079-2.19,13.062-2.324c9.203-1.255,17.618-2.431,26.231,2.176
					c7.357,3.935,12.26,10.13,13.779,18.448c1.451,7.947-0.594,18.532-4.808,25.411c-0.082-2.132,0.869-7.22,0.273-9.218
					c-0.406-2.013-1.194-3.933-2.236-5.689c-2.081-3.507-5.176-6.387-8.684-8.375c-5.592-3.169-11.983-4.665-18.318-5.226
					c-5.805-0.515-12.866-0.9-18.481,0.951c-2.699,0.89-3.118,1.612-4.917-1.111c-0.317-0.48-2.927-6.142-2.701-6.158
					C800.833,203.189,801.792,203.124,802.751,203.058z"/>
			</g>
		</g>
	</g>
	<g>
		<g>
			<g>
				<polygon style="fill:#C4C6C6;" points="479.235,656.709 396.613,655.793 404.779,592.643 472.471,593.394 				"/>
			</g>
			<g style="opacity:0.14;">
				<polygon points="402.426,610.12 473.933,607.075 475.919,625.67 				"/>
			</g>
			<g>
				<path style="fill:#CDD1D1;" d="M220.665,299.218v301.938c0,4.951,4.014,8.965,8.965,8.965h417.288
					c4.951,0,8.965-4.014,8.965-8.965V299.218c0-3.259-2.642-5.9-5.9-5.9H226.565C223.307,293.318,220.665,295.959,220.665,299.218z
					"/>
			</g>
			<g>
				<path style="fill:#3B455A;" d="M220.665,299.176v271.759h435.218V299.176c0-3.501-2.838-6.338-6.338-6.338H227.004
					C223.503,292.837,220.665,295.675,220.665,299.176z"/>
			</g>
			<g>
				<rect x="232.139" y="305.547" style="fill:#F2F2F2;" width="412.272" height="250.592"/>
			</g>
			<g>
				<path style="fill:#CDD1D1;" d="M503.57,670.79H372.98v-14.542c0-4.549,3.687-8.236,8.236-8.236h114.118
					c4.548,0,8.236,3.687,8.236,8.236V670.79z"/>
			</g>
		</g>
		<g>
			<rect x="232.139" y="324.546" style="fill:#F2F2F2;" width="412.272" height="124.17"/>
		</g>
		<g>
			<g style="opacity:0.7;">
				<g>
					<rect x="263.549" y="466.921" style="fill:#9EA6AD;" width="112.424" height="65.592"/>
				</g>
				<g>
					<rect x="381.712" y="466.921" style="fill:#9EA6AD;" width="112.424" height="65.592"/>
				</g>
				<g>
					<rect x="499.875" y="466.921" style="fill:#9EA6AD;" width="112.424" height="65.592"/>
				</g>
			</g>
			<g>
				<rect x="262.744" y="538.932" style="fill:#B3C1C4;" width="61.947" height="7.057"/>
			</g>
			<g>
				<rect x="381.712" y="538.932" style="fill:#B3C1C4;" width="61.947" height="7.057"/>
			</g>
			<g>
				<rect x="499.875" y="538.932" style="fill:#B3C1C4;" width="61.947" height="7.057"/>
			</g>
		</g>
		<g style="opacity:0.15;">
			<polygon style="fill:#FFFFFF;" points="439.173,305.011 266.926,556.139 232.139,556.139 232.139,305.547 			"/>
		</g>
	</g>
	<g>
		<g>
			<path style="fill:#3B455A;" d="M190.509,683.834l-0.573,6.651l-4.39,5.408c0,0-1.26,8.114,1.14,9.539
				c2.4,1.425,39.856,5.872,39.856,5.872l3.86-5.758l-3.096-6.358l-19.798-9.056l-6.8-7.551L190.509,683.834z"/>
		</g>
		<g>
			<path style="fill:#3B455A;" d="M229.667,669.467l-0.573,6.651l-4.327,5.414c0,0-1.251,8.115,1.108,9.537
				c2.359,1.422,39.207,5.816,39.207,5.816l3.806-5.763l-3.037-6.353l-19.467-9.027l-6.68-7.541L229.667,669.467z"/>
		</g>
		<g>
			<g>
				<path style="fill:#3B455A;" d="M184.598,553.399c3.215,6.767,6.112,12.905,6.636,21.62c0.515,8.572-1.088,17.108-2.303,25.609
					c-4.204,29.418-3.791,59.277-3.37,88.991c10.25,0.446,20.51,0.659,30.769,0.638c1.745-0.003,3.711-0.108,4.872-1.41
					c1.164-1.305,1.04-3.275,0.846-5.013c-2.353-21.112-2.189-42.471-1.871-63.681c0.157-10.447,0.516-19.379,2.658-29.46
					c2.127-10.016,1.748-20.392,1.061-30.543c-1.682-24.86-6.719-49.259-8.106-74.109c-0.252-4.507-0.678-9.352-3.595-12.797
					c-3.507-4.141-9.518-4.987-14.945-4.984c-14.919,0.008-31.755,2.36-32.505,20.453c-0.25,6.032,1.339,11.975,3.027,17.771
					c3.867,13.279,8.07,26.688,13.426,39.453C182.311,548.593,183.474,551.034,184.598,553.399z"/>
			</g>
			<g>
				<path style="fill:#3B455A;" d="M226.194,541.975c3.066,6.917,5.825,13.191,5.932,21.922c0.105,8.587-2.038,17.033-3.766,25.464
					c-5.981,29.175-7.082,59.018-8.167,88.716c10.862,0.951,21.747,1.67,32.643,2.156c1.853,0.083,3.946,0.075,5.246-1.168
					c1.303-1.246,1.273-3.22,1.157-4.965c-1.755-26.382-3.732-52.847-1.875-79.22c0.711-10.093,1.982-20.148,2.551-30.25
					c1.107-19.672-0.474-39.366-2.872-58.907c-1.477-12.035,0.615-37.801-11.562-45.086c-5.513-3.298-12.483-3.786-18.928-2.799
					c-3.287,0.503-6.568,1.387-9.347,3.112c-5.355,3.324-8.184,9.426-8.761,15.438c-0.577,6.012,0.805,12.026,2.298,17.899
					c3.422,13.454,7.194,27.054,12.223,40.067C224.014,537.061,225.123,539.557,226.194,541.975z"/>
			</g>
			<g>
				<path style="fill:#FFFFFF;" d="M172.768,315.526c-7.853,4.655-13.784,11.76-15.841,22.305
					c-9.291,47.622-3.553,96.739,2.212,144.915c0.393,3.287,1,6.956,3.672,8.91c3.025,2.213,7.23,1.208,10.825,0.15
					c28.279-8.322,57.254-14.277,86.522-17.781c-1.769-35.424-5.203-70.766-10.287-105.868c-1.374-9.489-2.894-19.054-6.439-27.962
					c-7.913-19.889-21.347-34.065-43.866-32.222C190.013,308.755,180.467,310.962,172.768,315.526z"/>
			</g>
			<g>
				<g>
					<path style="fill:#FEE4D6;" d="M222.076,268.818c0.382,6.065,0.677,12.533-2.355,17.8c-2.583,4.487-7.182,7.378-10.714,11.163
						c-2.152,2.306-3.941,5.306-4.344,8.48c-0.397,3.133,1.286,5.806,1.267,8.941c-0.002,0.293-0.014,0.599-0.152,0.858
						c-0.147,0.277-0.419,0.465-0.695,0.614c-1.417,0.769-3.103,0.797-4.715,0.806c-1.904,0.011-3.984,0.266-5.871,0.035
						c-2.468-0.302-1.966-0.801-2.199-3.315c-0.347-3.75-0.854-7.514-2.064-11.095c-2.497-7.39-7.811-13.703-9.317-21.448
						c-1.666-8.569,0.824-16.967,3.541-25.115c1.216-3.645,2.55-7.361,5.049-10.28c5.491-6.415,18.367-8.464,24.52-1.91
						C221.338,252.141,221.427,258.526,222.076,268.818z"/>
				</g>
				<g>
					<path style="fill:#3B455A;" d="M220.13,264.659c3.987,5.465,4.635,13.178,1.616,19.232c4.633-3.234,6.813-8.993,7.747-14.565
						c0.513-3.065,0.73-6.196,0.378-9.284c-1.111-9.748-8.839-18.758-18.565-20.052c-6.433-0.856-6.408,7.346-3.901,11.336
						C210.703,256.575,216.504,259.689,220.13,264.659z"/>
				</g>
				<g>
					<path style="fill:#3B455A;" d="M203.093,234.895c-3.604-1.725-7.768-1.824-11.75-1.484c-5.455,0.466-16.43,2.077-22.911,6.141
						c-3.655-7.815-14.204-13.722-21.902-9.668c-4.508,2.374-6.459,7.535-4.378,11.58c0.52,1.01,1.262,1.95,2.227,2.71
						c0.809,0.637,1.774,1.148,2.465,1.872c2.62,2.744,0.196,6.638-1.732,9.742c-2.177,3.505-3.67,7.294-4.406,11.179
						c-0.415,2.192-0.575,4.504,0.43,6.565c1.004,2.06,3.444,3.788,6.149,3.671c4.896-0.212,5.883-4.383,6.137-8.173
						c0.292-4.365,1.027-8.195,3.007-12.262c0.725-1.49,1.717-3.06,3.318-3.486c0.306-0.081,0.614-0.113,0.923-0.112
						c-1.076,3.646-1.659,7.341-1.093,11.399c1.128,8.088,4.12,15.975,9.072,22.469c4.952,6.493,11.91,11.535,19.778,13.723
						c0.557-4.977-4.693-8.747-5.648-13.663c-0.517-2.661,0.302-5.443,1.695-7.769c1.393-2.326,3.326-4.273,5.239-6.194
						c3.298-3.312,6.596-6.624,9.893-9.936c2.691-2.702,5.406-5.435,7.417-8.676C211.114,247.931,210.923,238.642,203.093,234.895z"
						/>
				</g>
			</g>
		</g>
	</g>
	<g>
		<g style="opacity:0.15;">
			<g>
				<defs>
					<rect id="SVGID_1_" x="235.113" y="323.557" width="397.419" height="125.708"/>
				</defs>
				<clipPath id="SVGID_00000128483598931338965890000012255053648516296094_">
					<use xlink:href="#SVGID_1_"  style="overflow:visible;"/>
				</clipPath>
				
					<rect x="631.98" y="323.557" style="clip-path:url(#SVGID_00000128483598931338965890000012255053648516296094_);fill:#D0D0D0;" width="0.553" height="125.708"/>
				
					<rect x="631.34" y="323.557" style="clip-path:url(#SVGID_00000128483598931338965890000012255053648516296094_);fill:#CFCFCF;" width="0.64" height="125.708"/>
				
					<rect x="630.701" y="323.557" style="clip-path:url(#SVGID_00000128483598931338965890000012255053648516296094_);fill:#CDCDCD;" width="0.64" height="125.708"/>
				
					<rect x="630.061" y="323.557" style="clip-path:url(#SVGID_00000128483598931338965890000012255053648516296094_);fill:#CCCCCC;" width="0.64" height="125.708"/>
				
					<rect x="629.422" y="323.557" style="clip-path:url(#SVGID_00000128483598931338965890000012255053648516296094_);fill:#CACACA;" width="0.64" height="125.708"/>
				
					<rect x="628.782" y="323.557" style="clip-path:url(#SVGID_00000128483598931338965890000012255053648516296094_);fill:#C9C9C9;" width="0.64" height="125.708"/>
				
					<rect x="628.142" y="323.557" style="clip-path:url(#SVGID_00000128483598931338965890000012255053648516296094_);fill:#C7C7C7;" width="0.64" height="125.708"/>
				
					<rect x="627.503" y="323.557" style="clip-path:url(#SVGID_00000128483598931338965890000012255053648516296094_);fill:#C6C6C6;" width="0.64" height="125.708"/>
				
					<rect x="626.863" y="323.557" style="clip-path:url(#SVGID_00000128483598931338965890000012255053648516296094_);fill:#C4C4C4;" width="0.64" height="125.708"/>
				
					<rect x="626.223" y="323.557" style="clip-path:url(#SVGID_00000128483598931338965890000012255053648516296094_);fill:#C3C3C3;" width="0.64" height="125.708"/>
				
					<rect x="625.583" y="323.557" style="clip-path:url(#SVGID_00000128483598931338965890000012255053648516296094_);fill:#C1C1C1;" width="0.64" height="125.708"/>
				
					<rect x="624.944" y="323.557" style="clip-path:url(#SVGID_00000128483598931338965890000012255053648516296094_);fill:#C0C0C0;" width="0.64" height="125.708"/>
				
					<rect x="624.304" y="323.557" style="clip-path:url(#SVGID_00000128483598931338965890000012255053648516296094_);fill:#BEBEBE;" width="0.64" height="125.708"/>
				
					<rect x="623.664" y="323.557" style="clip-path:url(#SVGID_00000128483598931338965890000012255053648516296094_);fill:#BDBDBD;" width="0.64" height="125.708"/>
				
					<rect x="623.025" y="323.557" style="clip-path:url(#SVGID_00000128483598931338965890000012255053648516296094_);fill:#BBBBBB;" width="0.64" height="125.708"/>
				
					<rect x="622.385" y="323.557" style="clip-path:url(#SVGID_00000128483598931338965890000012255053648516296094_);fill:#BABABA;" width="0.64" height="125.708"/>
				
					<rect x="621.745" y="323.557" style="clip-path:url(#SVGID_00000128483598931338965890000012255053648516296094_);fill:#B9B9B9;" width="0.64" height="125.708"/>
				
					<rect x="621.106" y="323.557" style="clip-path:url(#SVGID_00000128483598931338965890000012255053648516296094_);fill:#B7B7B7;" width="0.64" height="125.708"/>
				
					<rect x="620.466" y="323.557" style="clip-path:url(#SVGID_00000128483598931338965890000012255053648516296094_);fill:#B6B6B6;" width="0.64" height="125.708"/>
				
					<rect x="619.826" y="323.557" style="clip-path:url(#SVGID_00000128483598931338965890000012255053648516296094_);fill:#B4B4B4;" width="0.64" height="125.708"/>
				
					<rect x="619.187" y="323.557" style="clip-path:url(#SVGID_00000128483598931338965890000012255053648516296094_);fill:#B3B3B3;" width="0.64" height="125.708"/>
				
					<rect x="618.547" y="323.557" style="clip-path:url(#SVGID_00000128483598931338965890000012255053648516296094_);fill:#B1B1B1;" width="0.64" height="125.708"/>
				
					<rect x="617.907" y="323.557" style="clip-path:url(#SVGID_00000128483598931338965890000012255053648516296094_);fill:#B0B0B0;" width="0.64" height="125.708"/>
				
					<rect x="617.268" y="323.557" style="clip-path:url(#SVGID_00000128483598931338965890000012255053648516296094_);fill:#AFAFAF;" width="0.64" height="125.708"/>
				
					<rect x="616.628" y="323.557" style="clip-path:url(#SVGID_00000128483598931338965890000012255053648516296094_);fill:#ADADAD;" width="0.64" height="125.708"/>
				
					<rect x="615.988" y="323.557" style="clip-path:url(#SVGID_00000128483598931338965890000012255053648516296094_);fill:#ACACAC;" width="0.64" height="125.708"/>
				
					<rect x="615.349" y="323.557" style="clip-path:url(#SVGID_00000128483598931338965890000012255053648516296094_);fill:#AAAAAA;" width="0.64" height="125.708"/>
				
					<rect x="614.709" y="323.557" style="clip-path:url(#SVGID_00000128483598931338965890000012255053648516296094_);fill:#A9A9A9;" width="0.64" height="125.708"/>
				
					<rect x="614.07" y="323.557" style="clip-path:url(#SVGID_00000128483598931338965890000012255053648516296094_);fill:#A8A8A8;" width="0.64" height="125.708"/>
				
					<rect x="613.43" y="323.557" style="clip-path:url(#SVGID_00000128483598931338965890000012255053648516296094_);fill:#A6A6A6;" width="0.64" height="125.708"/>
				
					<rect x="612.79" y="323.557" style="clip-path:url(#SVGID_00000128483598931338965890000012255053648516296094_);fill:#A5A5A5;" width="0.64" height="125.708"/>
				
					<rect x="612.151" y="323.557" style="clip-path:url(#SVGID_00000128483598931338965890000012255053648516296094_);fill:#A4A4A4;" width="0.64" height="125.708"/>
				
					<rect x="611.511" y="323.557" style="clip-path:url(#SVGID_00000128483598931338965890000012255053648516296094_);fill:#A2A2A2;" width="0.64" height="125.708"/>
				
					<rect x="610.871" y="323.557" style="clip-path:url(#SVGID_00000128483598931338965890000012255053648516296094_);fill:#A1A1A1;" width="0.64" height="125.708"/>
				
					<rect x="610.232" y="323.557" style="clip-path:url(#SVGID_00000128483598931338965890000012255053648516296094_);fill:#9F9F9F;" width="0.64" height="125.708"/>
				
					<rect x="609.592" y="323.557" style="clip-path:url(#SVGID_00000128483598931338965890000012255053648516296094_);fill:#9E9E9E;" width="0.64" height="125.708"/>
				
					<rect x="608.952" y="323.557" style="clip-path:url(#SVGID_00000128483598931338965890000012255053648516296094_);fill:#9D9D9D;" width="0.64" height="125.708"/>
				
					<rect x="608.313" y="323.557" style="clip-path:url(#SVGID_00000128483598931338965890000012255053648516296094_);fill:#9B9B9B;" width="0.64" height="125.708"/>
				
					<rect x="607.673" y="323.557" style="clip-path:url(#SVGID_00000128483598931338965890000012255053648516296094_);fill:#9A9A9A;" width="0.64" height="125.708"/>
				
					<rect x="607.033" y="323.557" style="clip-path:url(#SVGID_00000128483598931338965890000012255053648516296094_);fill:#999999;" width="0.64" height="125.708"/>
				
					<rect x="606.393" y="323.557" style="clip-path:url(#SVGID_00000128483598931338965890000012255053648516296094_);fill:#979797;" width="0.64" height="125.708"/>
				
					<rect x="605.754" y="323.557" style="clip-path:url(#SVGID_00000128483598931338965890000012255053648516296094_);fill:#969696;" width="0.64" height="125.708"/>
				
					<rect x="605.114" y="323.557" style="clip-path:url(#SVGID_00000128483598931338965890000012255053648516296094_);fill:#959595;" width="0.64" height="125.708"/>
				
					<rect x="604.474" y="323.557" style="clip-path:url(#SVGID_00000128483598931338965890000012255053648516296094_);fill:#939393;" width="0.64" height="125.708"/>
				
					<rect x="603.835" y="323.557" style="clip-path:url(#SVGID_00000128483598931338965890000012255053648516296094_);fill:#929292;" width="0.64" height="125.708"/>
				
					<rect x="603.195" y="323.557" style="clip-path:url(#SVGID_00000128483598931338965890000012255053648516296094_);fill:#919191;" width="0.64" height="125.708"/>
				
					<rect x="602.555" y="323.557" style="clip-path:url(#SVGID_00000128483598931338965890000012255053648516296094_);fill:#909090;" width="0.64" height="125.708"/>
				
					<rect x="601.916" y="323.557" style="clip-path:url(#SVGID_00000128483598931338965890000012255053648516296094_);fill:#8E8E8E;" width="0.64" height="125.708"/>
				
					<rect x="601.276" y="323.557" style="clip-path:url(#SVGID_00000128483598931338965890000012255053648516296094_);fill:#8D8D8D;" width="0.64" height="125.708"/>
				
					<rect x="600.636" y="323.557" style="clip-path:url(#SVGID_00000128483598931338965890000012255053648516296094_);fill:#8C8C8C;" width="0.64" height="125.708"/>
				
					<rect x="599.997" y="323.557" style="clip-path:url(#SVGID_00000128483598931338965890000012255053648516296094_);fill:#8A8A8A;" width="0.64" height="125.708"/>
				
					<rect x="599.357" y="323.557" style="clip-path:url(#SVGID_00000128483598931338965890000012255053648516296094_);fill:#898989;" width="0.64" height="125.708"/>
				
					<rect x="598.718" y="323.557" style="clip-path:url(#SVGID_00000128483598931338965890000012255053648516296094_);fill:#888888;" width="0.64" height="125.708"/>
				
					<rect x="598.078" y="323.557" style="clip-path:url(#SVGID_00000128483598931338965890000012255053648516296094_);fill:#868686;" width="0.64" height="125.708"/>
				
					<rect x="597.438" y="323.557" style="clip-path:url(#SVGID_00000128483598931338965890000012255053648516296094_);fill:#858585;" width="0.64" height="125.708"/>
				
					<rect x="596.799" y="323.557" style="clip-path:url(#SVGID_00000128483598931338965890000012255053648516296094_);fill:#848484;" width="0.64" height="125.708"/>
				
					<rect x="596.159" y="323.557" style="clip-path:url(#SVGID_00000128483598931338965890000012255053648516296094_);fill:#838383;" width="0.64" height="125.708"/>
				
					<rect x="595.519" y="323.557" style="clip-path:url(#SVGID_00000128483598931338965890000012255053648516296094_);fill:#818181;" width="0.64" height="125.708"/>
				
					<rect x="594.88" y="323.557" style="clip-path:url(#SVGID_00000128483598931338965890000012255053648516296094_);fill:#808080;" width="0.64" height="125.708"/>
				
					<rect x="594.24" y="323.557" style="clip-path:url(#SVGID_00000128483598931338965890000012255053648516296094_);fill:#7F7F7F;" width="0.64" height="125.708"/>
				
					<rect x="593.6" y="323.557" style="clip-path:url(#SVGID_00000128483598931338965890000012255053648516296094_);fill:#7E7E7E;" width="0.64" height="125.708"/>
				
					<rect x="592.961" y="323.557" style="clip-path:url(#SVGID_00000128483598931338965890000012255053648516296094_);fill:#7C7C7C;" width="0.64" height="125.708"/>
				
					<rect x="592.321" y="323.557" style="clip-path:url(#SVGID_00000128483598931338965890000012255053648516296094_);fill:#7B7B7B;" width="0.64" height="125.708"/>
				
					<rect x="591.681" y="323.557" style="clip-path:url(#SVGID_00000128483598931338965890000012255053648516296094_);fill:#7A7A7A;" width="0.64" height="125.708"/>
				
					<rect x="591.042" y="323.557" style="clip-path:url(#SVGID_00000128483598931338965890000012255053648516296094_);fill:#797979;" width="0.64" height="125.708"/>
				
					<rect x="590.402" y="323.557" style="clip-path:url(#SVGID_00000128483598931338965890000012255053648516296094_);fill:#787878;" width="0.64" height="125.708"/>
				
					<rect x="589.762" y="323.557" style="clip-path:url(#SVGID_00000128483598931338965890000012255053648516296094_);fill:#767676;" width="0.64" height="125.708"/>
				
					<rect x="589.122" y="323.557" style="clip-path:url(#SVGID_00000128483598931338965890000012255053648516296094_);fill:#757575;" width="0.64" height="125.708"/>
				
					<rect x="588.483" y="323.557" style="clip-path:url(#SVGID_00000128483598931338965890000012255053648516296094_);fill:#747474;" width="0.64" height="125.708"/>
				
					<rect x="587.843" y="323.557" style="clip-path:url(#SVGID_00000128483598931338965890000012255053648516296094_);fill:#737373;" width="0.64" height="125.708"/>
				
					<rect x="587.203" y="323.557" style="clip-path:url(#SVGID_00000128483598931338965890000012255053648516296094_);fill:#727272;" width="0.64" height="125.708"/>
				
					<rect x="586.564" y="323.557" style="clip-path:url(#SVGID_00000128483598931338965890000012255053648516296094_);fill:#707070;" width="0.64" height="125.708"/>
				
					<rect x="585.924" y="323.557" style="clip-path:url(#SVGID_00000128483598931338965890000012255053648516296094_);fill:#6F6F6F;" width="0.64" height="125.708"/>
				
					<rect x="585.284" y="323.557" style="clip-path:url(#SVGID_00000128483598931338965890000012255053648516296094_);fill:#6E6E6E;" width="0.64" height="125.708"/>
				
					<rect x="584.645" y="323.557" style="clip-path:url(#SVGID_00000128483598931338965890000012255053648516296094_);fill:#6D6D6D;" width="0.64" height="125.708"/>
				
					<rect x="584.005" y="323.557" style="clip-path:url(#SVGID_00000128483598931338965890000012255053648516296094_);fill:#6C6C6C;" width="0.64" height="125.708"/>
				
					<rect x="583.365" y="323.557" style="clip-path:url(#SVGID_00000128483598931338965890000012255053648516296094_);fill:#6A6A6A;" width="0.64" height="125.708"/>
				
					<rect x="582.726" y="323.557" style="clip-path:url(#SVGID_00000128483598931338965890000012255053648516296094_);fill:#696969;" width="0.64" height="125.708"/>
				
					<rect x="582.086" y="323.557" style="clip-path:url(#SVGID_00000128483598931338965890000012255053648516296094_);fill:#686868;" width="0.64" height="125.708"/>
				
					<rect x="581.447" y="323.557" style="clip-path:url(#SVGID_00000128483598931338965890000012255053648516296094_);fill:#676767;" width="0.64" height="125.708"/>
				
					<rect x="580.807" y="323.557" style="clip-path:url(#SVGID_00000128483598931338965890000012255053648516296094_);fill:#666666;" width="0.64" height="125.708"/>
				
					<rect x="580.167" y="323.557" style="clip-path:url(#SVGID_00000128483598931338965890000012255053648516296094_);fill:#656565;" width="0.64" height="125.708"/>
				
					<rect x="579.528" y="323.557" style="clip-path:url(#SVGID_00000128483598931338965890000012255053648516296094_);fill:#646464;" width="0.64" height="125.708"/>
				
					<rect x="578.888" y="323.557" style="clip-path:url(#SVGID_00000128483598931338965890000012255053648516296094_);fill:#626262;" width="0.64" height="125.708"/>
				
					<rect x="578.248" y="323.557" style="clip-path:url(#SVGID_00000128483598931338965890000012255053648516296094_);fill:#616161;" width="0.64" height="125.708"/>
				
					<rect x="577.609" y="323.557" style="clip-path:url(#SVGID_00000128483598931338965890000012255053648516296094_);fill:#606060;" width="0.64" height="125.708"/>
				
					<rect x="576.969" y="323.557" style="clip-path:url(#SVGID_00000128483598931338965890000012255053648516296094_);fill:#5F5F5F;" width="0.64" height="125.708"/>
				
					<rect x="576.329" y="323.557" style="clip-path:url(#SVGID_00000128483598931338965890000012255053648516296094_);fill:#5E5E5E;" width="0.64" height="125.708"/>
				
					<rect x="575.69" y="323.557" style="clip-path:url(#SVGID_00000128483598931338965890000012255053648516296094_);fill:#5D5D5D;" width="0.64" height="125.708"/>
				
					<rect x="575.05" y="323.557" style="clip-path:url(#SVGID_00000128483598931338965890000012255053648516296094_);fill:#5C5C5C;" width="0.64" height="125.708"/>
				
					<rect x="574.41" y="323.557" style="clip-path:url(#SVGID_00000128483598931338965890000012255053648516296094_);fill:#5B5B5B;" width="0.64" height="125.708"/>
				
					<rect x="573.771" y="323.557" style="clip-path:url(#SVGID_00000128483598931338965890000012255053648516296094_);fill:#5A5A5A;" width="0.64" height="125.708"/>
				
					<rect x="573.131" y="323.557" style="clip-path:url(#SVGID_00000128483598931338965890000012255053648516296094_);fill:#585858;" width="0.64" height="125.708"/>
				
					<rect x="572.491" y="323.557" style="clip-path:url(#SVGID_00000128483598931338965890000012255053648516296094_);fill:#575757;" width="0.64" height="125.708"/>
				
					<rect x="571.852" y="323.557" style="clip-path:url(#SVGID_00000128483598931338965890000012255053648516296094_);fill:#565656;" width="0.64" height="125.708"/>
				
					<rect x="571.212" y="323.557" style="clip-path:url(#SVGID_00000128483598931338965890000012255053648516296094_);fill:#555555;" width="0.64" height="125.708"/>
				
					<rect x="570.572" y="323.557" style="clip-path:url(#SVGID_00000128483598931338965890000012255053648516296094_);fill:#545454;" width="0.64" height="125.708"/>
				
					<rect x="569.933" y="323.557" style="clip-path:url(#SVGID_00000128483598931338965890000012255053648516296094_);fill:#535353;" width="0.64" height="125.708"/>
				
					<rect x="569.293" y="323.557" style="clip-path:url(#SVGID_00000128483598931338965890000012255053648516296094_);fill:#525252;" width="0.64" height="125.708"/>
				
					<rect x="568.653" y="323.557" style="clip-path:url(#SVGID_00000128483598931338965890000012255053648516296094_);fill:#515151;" width="0.64" height="125.708"/>
				
					<rect x="568.014" y="323.557" style="clip-path:url(#SVGID_00000128483598931338965890000012255053648516296094_);fill:#505050;" width="0.64" height="125.708"/>
				
					<rect x="567.374" y="323.557" style="clip-path:url(#SVGID_00000128483598931338965890000012255053648516296094_);fill:#4F4F4F;" width="0.64" height="125.708"/>
				
					<rect x="566.734" y="323.557" style="clip-path:url(#SVGID_00000128483598931338965890000012255053648516296094_);fill:#4E4E4E;" width="0.64" height="125.708"/>
				
					<rect x="566.095" y="323.557" style="clip-path:url(#SVGID_00000128483598931338965890000012255053648516296094_);fill:#4D4D4D;" width="0.64" height="125.708"/>
				
					<rect x="565.455" y="323.557" style="clip-path:url(#SVGID_00000128483598931338965890000012255053648516296094_);fill:#4C4C4C;" width="0.64" height="125.708"/>
				
					<rect x="564.815" y="323.557" style="clip-path:url(#SVGID_00000128483598931338965890000012255053648516296094_);fill:#4B4B4B;" width="0.64" height="125.708"/>
				
					<rect x="564.176" y="323.557" style="clip-path:url(#SVGID_00000128483598931338965890000012255053648516296094_);fill:#4A4A4A;" width="0.64" height="125.708"/>
				
					<rect x="563.536" y="323.557" style="clip-path:url(#SVGID_00000128483598931338965890000012255053648516296094_);fill:#494949;" width="0.64" height="125.708"/>
				
					<rect x="562.896" y="323.557" style="clip-path:url(#SVGID_00000128483598931338965890000012255053648516296094_);fill:#484848;" width="0.64" height="125.708"/>
				
					<rect x="562.257" y="323.557" style="clip-path:url(#SVGID_00000128483598931338965890000012255053648516296094_);fill:#474747;" width="0.64" height="125.708"/>
				
					<rect x="561.617" y="323.557" style="clip-path:url(#SVGID_00000128483598931338965890000012255053648516296094_);fill:#464646;" width="0.64" height="125.708"/>
				
					<rect x="560.977" y="323.557" style="clip-path:url(#SVGID_00000128483598931338965890000012255053648516296094_);fill:#454545;" width="0.64" height="125.708"/>
				
					<rect x="560.338" y="323.557" style="clip-path:url(#SVGID_00000128483598931338965890000012255053648516296094_);fill:#444444;" width="0.64" height="125.708"/>
				
					<rect x="559.698" y="323.557" style="clip-path:url(#SVGID_00000128483598931338965890000012255053648516296094_);fill:#434343;" width="0.64" height="125.708"/>
				
					<rect x="559.058" y="323.557" style="clip-path:url(#SVGID_00000128483598931338965890000012255053648516296094_);fill:#424242;" width="0.64" height="125.708"/>
				
					<rect x="558.419" y="323.557" style="clip-path:url(#SVGID_00000128483598931338965890000012255053648516296094_);fill:#414141;" width="0.64" height="125.708"/>
				
					<rect x="557.779" y="323.557" style="clip-path:url(#SVGID_00000128483598931338965890000012255053648516296094_);fill:#404040;" width="0.64" height="125.708"/>
				
					<rect x="557.139" y="323.557" style="clip-path:url(#SVGID_00000128483598931338965890000012255053648516296094_);fill:#3F3F3F;" width="0.64" height="125.708"/>
				
					<rect x="556.5" y="323.557" style="clip-path:url(#SVGID_00000128483598931338965890000012255053648516296094_);fill:#3E3E3E;" width="0.64" height="125.708"/>
				
					<rect x="555.86" y="323.557" style="clip-path:url(#SVGID_00000128483598931338965890000012255053648516296094_);fill:#3D3D3D;" width="0.64" height="125.708"/>
				
					<rect x="555.22" y="323.557" style="clip-path:url(#SVGID_00000128483598931338965890000012255053648516296094_);fill:#3C3C3C;" width="0.64" height="125.708"/>
				
					<rect x="554.581" y="323.557" style="clip-path:url(#SVGID_00000128483598931338965890000012255053648516296094_);fill:#3B3B3B;" width="0.64" height="125.708"/>
				
					<rect x="553.941" y="323.557" style="clip-path:url(#SVGID_00000128483598931338965890000012255053648516296094_);fill:#3A3A3A;" width="0.64" height="125.708"/>
				
					<rect x="553.301" y="323.557" style="clip-path:url(#SVGID_00000128483598931338965890000012255053648516296094_);fill:#393939;" width="0.64" height="125.708"/>
				
					<rect x="552.662" y="323.557" style="clip-path:url(#SVGID_00000128483598931338965890000012255053648516296094_);fill:#383838;" width="0.64" height="125.708"/>
				
					<rect x="552.022" y="323.557" style="clip-path:url(#SVGID_00000128483598931338965890000012255053648516296094_);fill:#383838;" width="0.64" height="125.708"/>
				
					<rect x="551.382" y="323.557" style="clip-path:url(#SVGID_00000128483598931338965890000012255053648516296094_);fill:#373737;" width="0.64" height="125.708"/>
				
					<rect x="550.743" y="323.557" style="clip-path:url(#SVGID_00000128483598931338965890000012255053648516296094_);fill:#363636;" width="0.64" height="125.708"/>
				
					<rect x="550.103" y="323.557" style="clip-path:url(#SVGID_00000128483598931338965890000012255053648516296094_);fill:#353535;" width="0.64" height="125.708"/>
				
					<rect x="549.463" y="323.557" style="clip-path:url(#SVGID_00000128483598931338965890000012255053648516296094_);fill:#343434;" width="0.64" height="125.708"/>
				
					<rect x="548.824" y="323.557" style="clip-path:url(#SVGID_00000128483598931338965890000012255053648516296094_);fill:#3B455A;" width="0.64" height="125.708"/>
				
					<rect x="548.184" y="323.557" style="clip-path:url(#SVGID_00000128483598931338965890000012255053648516296094_);fill:#323232;" width="0.64" height="125.708"/>
				
					<rect x="547.544" y="323.557" style="clip-path:url(#SVGID_00000128483598931338965890000012255053648516296094_);fill:#313131;" width="0.64" height="125.708"/>
				
					<rect x="546.905" y="323.557" style="clip-path:url(#SVGID_00000128483598931338965890000012255053648516296094_);fill:#313131;" width="0.64" height="125.708"/>
				
					<rect x="546.265" y="323.557" style="clip-path:url(#SVGID_00000128483598931338965890000012255053648516296094_);fill:#303030;" width="0.64" height="125.708"/>
				
					<rect x="545.625" y="323.557" style="clip-path:url(#SVGID_00000128483598931338965890000012255053648516296094_);fill:#2F2F2F;" width="0.64" height="125.708"/>
				
					<rect x="544.986" y="323.557" style="clip-path:url(#SVGID_00000128483598931338965890000012255053648516296094_);fill:#2E2E2E;" width="0.64" height="125.708"/>
				
					<rect x="544.346" y="323.557" style="clip-path:url(#SVGID_00000128483598931338965890000012255053648516296094_);fill:#2D2D2D;" width="0.64" height="125.708"/>
				
					<rect x="543.706" y="323.557" style="clip-path:url(#SVGID_00000128483598931338965890000012255053648516296094_);fill:#2C2C2C;" width="0.64" height="125.708"/>
				
					<rect x="543.067" y="323.557" style="clip-path:url(#SVGID_00000128483598931338965890000012255053648516296094_);fill:#2B2B2B;" width="0.64" height="125.708"/>
				
					<rect x="542.427" y="323.557" style="clip-path:url(#SVGID_00000128483598931338965890000012255053648516296094_);fill:#2B2B2B;" width="0.64" height="125.708"/>
				
					<rect x="541.787" y="323.557" style="clip-path:url(#SVGID_00000128483598931338965890000012255053648516296094_);fill:#2A2A2A;" width="0.64" height="125.708"/>
				
					<rect x="541.148" y="323.557" style="clip-path:url(#SVGID_00000128483598931338965890000012255053648516296094_);fill:#292929;" width="0.64" height="125.708"/>
				
					<rect x="540.508" y="323.557" style="clip-path:url(#SVGID_00000128483598931338965890000012255053648516296094_);fill:#282828;" width="0.64" height="125.708"/>
				
					<rect x="539.868" y="323.557" style="clip-path:url(#SVGID_00000128483598931338965890000012255053648516296094_);fill:#272727;" width="0.64" height="125.708"/>
				
					<rect x="539.229" y="323.557" style="clip-path:url(#SVGID_00000128483598931338965890000012255053648516296094_);fill:#272727;" width="0.64" height="125.708"/>
				
					<rect x="538.589" y="323.557" style="clip-path:url(#SVGID_00000128483598931338965890000012255053648516296094_);fill:#262626;" width="0.64" height="125.708"/>
				
					<rect x="537.949" y="323.557" style="clip-path:url(#SVGID_00000128483598931338965890000012255053648516296094_);fill:#252525;" width="0.64" height="125.708"/>
				
					<rect x="537.31" y="323.557" style="clip-path:url(#SVGID_00000128483598931338965890000012255053648516296094_);fill:#242424;" width="0.64" height="125.708"/>
				
					<rect x="536.67" y="323.557" style="clip-path:url(#SVGID_00000128483598931338965890000012255053648516296094_);fill:#232323;" width="0.64" height="125.708"/>
				
					<rect x="536.03" y="323.557" style="clip-path:url(#SVGID_00000128483598931338965890000012255053648516296094_);fill:#232323;" width="0.64" height="125.708"/>
				
					<rect x="535.391" y="323.557" style="clip-path:url(#SVGID_00000128483598931338965890000012255053648516296094_);fill:#222222;" width="0.64" height="125.708"/>
				
					<rect x="534.751" y="323.557" style="clip-path:url(#SVGID_00000128483598931338965890000012255053648516296094_);fill:#212121;" width="0.64" height="125.708"/>
				
					<rect x="534.111" y="323.557" style="clip-path:url(#SVGID_00000128483598931338965890000012255053648516296094_);fill:#202020;" width="0.64" height="125.708"/>
				
					<rect x="533.472" y="323.557" style="clip-path:url(#SVGID_00000128483598931338965890000012255053648516296094_);fill:#202020;" width="0.64" height="125.708"/>
				
					<rect x="532.832" y="323.557" style="clip-path:url(#SVGID_00000128483598931338965890000012255053648516296094_);fill:#1F1F1F;" width="0.64" height="125.708"/>
				
					<rect x="532.192" y="323.557" style="clip-path:url(#SVGID_00000128483598931338965890000012255053648516296094_);fill:#1E1E1E;" width="0.64" height="125.708"/>
				
					<rect x="531.553" y="323.557" style="clip-path:url(#SVGID_00000128483598931338965890000012255053648516296094_);fill:#1E1E1E;" width="0.64" height="125.708"/>
				
					<rect x="530.913" y="323.557" style="clip-path:url(#SVGID_00000128483598931338965890000012255053648516296094_);fill:#1D1D1D;" width="0.64" height="125.708"/>
				
					<rect x="530.273" y="323.557" style="clip-path:url(#SVGID_00000128483598931338965890000012255053648516296094_);fill:#1C1C1C;" width="0.64" height="125.708"/>
				
					<rect x="529.634" y="323.557" style="clip-path:url(#SVGID_00000128483598931338965890000012255053648516296094_);fill:#1B1B1B;" width="0.64" height="125.708"/>
				
					<rect x="528.994" y="323.557" style="clip-path:url(#SVGID_00000128483598931338965890000012255053648516296094_);fill:#1B1B1B;" width="0.64" height="125.708"/>
				
					<rect x="528.354" y="323.557" style="clip-path:url(#SVGID_00000128483598931338965890000012255053648516296094_);fill:#1A1A1A;" width="0.64" height="125.708"/>
				
					<rect x="527.715" y="323.557" style="clip-path:url(#SVGID_00000128483598931338965890000012255053648516296094_);fill:#191919;" width="0.64" height="125.708"/>
				
					<rect x="527.075" y="323.557" style="clip-path:url(#SVGID_00000128483598931338965890000012255053648516296094_);fill:#191919;" width="0.64" height="125.708"/>
				
					<rect x="526.435" y="323.557" style="clip-path:url(#SVGID_00000128483598931338965890000012255053648516296094_);fill:#181818;" width="0.64" height="125.708"/>
				
					<rect x="525.796" y="323.557" style="clip-path:url(#SVGID_00000128483598931338965890000012255053648516296094_);fill:#171717;" width="0.64" height="125.708"/>
				
					<rect x="525.156" y="323.557" style="clip-path:url(#SVGID_00000128483598931338965890000012255053648516296094_);fill:#171717;" width="0.64" height="125.708"/>
				
					<rect x="524.516" y="323.557" style="clip-path:url(#SVGID_00000128483598931338965890000012255053648516296094_);fill:#161616;" width="0.64" height="125.708"/>
				
					<rect x="523.877" y="323.557" style="clip-path:url(#SVGID_00000128483598931338965890000012255053648516296094_);fill:#151515;" width="0.64" height="125.708"/>
				
					<rect x="523.237" y="323.557" style="clip-path:url(#SVGID_00000128483598931338965890000012255053648516296094_);fill:#151515;" width="0.64" height="125.708"/>
				
					<rect x="522.597" y="323.557" style="clip-path:url(#SVGID_00000128483598931338965890000012255053648516296094_);fill:#141414;" width="0.64" height="125.708"/>
				
					<rect x="521.958" y="323.557" style="clip-path:url(#SVGID_00000128483598931338965890000012255053648516296094_);fill:#141414;" width="0.64" height="125.708"/>
				
					<rect x="521.318" y="323.557" style="clip-path:url(#SVGID_00000128483598931338965890000012255053648516296094_);fill:#131313;" width="0.64" height="125.708"/>
				
					<rect x="520.678" y="323.557" style="clip-path:url(#SVGID_00000128483598931338965890000012255053648516296094_);fill:#121212;" width="0.64" height="125.708"/>
				
					<rect x="520.039" y="323.557" style="clip-path:url(#SVGID_00000128483598931338965890000012255053648516296094_);fill:#121212;" width="0.64" height="125.708"/>
				
					<rect x="519.399" y="323.557" style="clip-path:url(#SVGID_00000128483598931338965890000012255053648516296094_);fill:#111111;" width="0.64" height="125.708"/>
				
					<rect x="518.759" y="323.557" style="clip-path:url(#SVGID_00000128483598931338965890000012255053648516296094_);fill:#111111;" width="0.64" height="125.708"/>
				
					<rect x="518.12" y="323.557" style="clip-path:url(#SVGID_00000128483598931338965890000012255053648516296094_);fill:#101010;" width="0.64" height="125.708"/>
				
					<rect x="517.48" y="323.557" style="clip-path:url(#SVGID_00000128483598931338965890000012255053648516296094_);fill:#101010;" width="0.64" height="125.708"/>
				
					<rect x="516.84" y="323.557" style="clip-path:url(#SVGID_00000128483598931338965890000012255053648516296094_);fill:#0F0F0F;" width="0.64" height="125.708"/>
				
					<rect x="516.201" y="323.557" style="clip-path:url(#SVGID_00000128483598931338965890000012255053648516296094_);fill:#0E0E0E;" width="0.64" height="125.708"/>
				
					<rect x="515.561" y="323.557" style="clip-path:url(#SVGID_00000128483598931338965890000012255053648516296094_);fill:#0E0E0E;" width="0.64" height="125.708"/>
				
					<rect x="514.921" y="323.557" style="clip-path:url(#SVGID_00000128483598931338965890000012255053648516296094_);fill:#0D0D0D;" width="0.64" height="125.708"/>
				
					<rect x="514.282" y="323.557" style="clip-path:url(#SVGID_00000128483598931338965890000012255053648516296094_);fill:#0D0D0D;" width="0.64" height="125.708"/>
				
					<rect x="513.642" y="323.557" style="clip-path:url(#SVGID_00000128483598931338965890000012255053648516296094_);fill:#0C0C0C;" width="0.64" height="125.708"/>
				
					<rect x="513.002" y="323.557" style="clip-path:url(#SVGID_00000128483598931338965890000012255053648516296094_);fill:#0C0C0C;" width="0.64" height="125.708"/>
				
					<rect x="512.363" y="323.557" style="clip-path:url(#SVGID_00000128483598931338965890000012255053648516296094_);fill:#0B0B0B;" width="0.64" height="125.708"/>
				
					<rect x="511.723" y="323.557" style="clip-path:url(#SVGID_00000128483598931338965890000012255053648516296094_);fill:#0B0B0B;" width="0.64" height="125.708"/>
				
					<rect x="511.083" y="323.557" style="clip-path:url(#SVGID_00000128483598931338965890000012255053648516296094_);fill:#0A0A0A;" width="0.64" height="125.708"/>
				
					<rect x="510.444" y="323.557" style="clip-path:url(#SVGID_00000128483598931338965890000012255053648516296094_);fill:#0A0A0A;" width="0.64" height="125.708"/>
				
					<rect x="509.804" y="323.557" style="clip-path:url(#SVGID_00000128483598931338965890000012255053648516296094_);fill:#090909;" width="0.64" height="125.708"/>
				
					<rect x="509.164" y="323.557" style="clip-path:url(#SVGID_00000128483598931338965890000012255053648516296094_);fill:#090909;" width="0.64" height="125.708"/>
				
					<rect x="508.525" y="323.557" style="clip-path:url(#SVGID_00000128483598931338965890000012255053648516296094_);fill:#090909;" width="0.64" height="125.708"/>
				
					<rect x="507.885" y="323.557" style="clip-path:url(#SVGID_00000128483598931338965890000012255053648516296094_);fill:#080808;" width="0.64" height="125.708"/>
				
					<rect x="507.245" y="323.557" style="clip-path:url(#SVGID_00000128483598931338965890000012255053648516296094_);fill:#080808;" width="0.64" height="125.708"/>
				
					<rect x="506.606" y="323.557" style="clip-path:url(#SVGID_00000128483598931338965890000012255053648516296094_);fill:#070707;" width="0.64" height="125.708"/>
				
					<rect x="505.966" y="323.557" style="clip-path:url(#SVGID_00000128483598931338965890000012255053648516296094_);fill:#070707;" width="0.64" height="125.708"/>
				
					<rect x="505.326" y="323.557" style="clip-path:url(#SVGID_00000128483598931338965890000012255053648516296094_);fill:#060606;" width="0.64" height="125.708"/>
				
					<rect x="504.687" y="323.557" style="clip-path:url(#SVGID_00000128483598931338965890000012255053648516296094_);fill:#060606;" width="0.64" height="125.708"/>
				
					<rect x="504.047" y="323.557" style="clip-path:url(#SVGID_00000128483598931338965890000012255053648516296094_);fill:#060606;" width="0.64" height="125.708"/>
				
					<rect x="503.407" y="323.557" style="clip-path:url(#SVGID_00000128483598931338965890000012255053648516296094_);fill:#050505;" width="0.64" height="125.708"/>
				
					<rect x="502.768" y="323.557" style="clip-path:url(#SVGID_00000128483598931338965890000012255053648516296094_);fill:#050505;" width="0.64" height="125.708"/>
				
					<rect x="502.128" y="323.557" style="clip-path:url(#SVGID_00000128483598931338965890000012255053648516296094_);fill:#050505;" width="0.64" height="125.708"/>
				
					<rect x="501.488" y="323.557" style="clip-path:url(#SVGID_00000128483598931338965890000012255053648516296094_);fill:#040404;" width="0.64" height="125.708"/>
				
					<rect x="500.849" y="323.557" style="clip-path:url(#SVGID_00000128483598931338965890000012255053648516296094_);fill:#040404;" width="0.64" height="125.708"/>
				
					<rect x="500.209" y="323.557" style="clip-path:url(#SVGID_00000128483598931338965890000012255053648516296094_);fill:#040404;" width="0.64" height="125.708"/>
				
					<rect x="499.569" y="323.557" style="clip-path:url(#SVGID_00000128483598931338965890000012255053648516296094_);fill:#030303;" width="0.64" height="125.708"/>
				
					<rect x="498.93" y="323.557" style="clip-path:url(#SVGID_00000128483598931338965890000012255053648516296094_);fill:#030303;" width="0.64" height="125.708"/>
				
					<rect x="498.29" y="323.557" style="clip-path:url(#SVGID_00000128483598931338965890000012255053648516296094_);fill:#030303;" width="0.64" height="125.708"/>
				
					<rect x="497.651" y="323.557" style="clip-path:url(#SVGID_00000128483598931338965890000012255053648516296094_);fill:#020202;" width="0.64" height="125.708"/>
				
					<rect x="497.011" y="323.557" style="clip-path:url(#SVGID_00000128483598931338965890000012255053648516296094_);fill:#020202;" width="0.64" height="125.708"/>
				
					<rect x="496.371" y="323.557" style="clip-path:url(#SVGID_00000128483598931338965890000012255053648516296094_);fill:#020202;" width="0.64" height="125.708"/>
				
					<rect x="495.732" y="323.557" style="clip-path:url(#SVGID_00000128483598931338965890000012255053648516296094_);fill:#020202;" width="0.64" height="125.708"/>
				
					<rect x="495.092" y="323.557" style="clip-path:url(#SVGID_00000128483598931338965890000012255053648516296094_);fill:#010101;" width="0.64" height="125.708"/>
				
					<rect x="494.452" y="323.557" style="clip-path:url(#SVGID_00000128483598931338965890000012255053648516296094_);fill:#010101;" width="0.64" height="125.708"/>
				
					<rect x="493.813" y="323.557" style="clip-path:url(#SVGID_00000128483598931338965890000012255053648516296094_);fill:#010101;" width="0.64" height="125.708"/>
				
					<rect x="493.173" y="323.557" style="clip-path:url(#SVGID_00000128483598931338965890000012255053648516296094_);fill:#010101;" width="0.64" height="125.708"/>
				
					<rect x="492.533" y="323.557" style="clip-path:url(#SVGID_00000128483598931338965890000012255053648516296094_);fill:#010101;" width="0.64" height="125.708"/>
				
					<rect x="491.893" y="323.557" style="clip-path:url(#SVGID_00000128483598931338965890000012255053648516296094_);" width="0.64" height="125.708"/>
				
					<rect x="491.254" y="323.557" style="clip-path:url(#SVGID_00000128483598931338965890000012255053648516296094_);" width="0.64" height="125.708"/>
				
					<rect x="490.614" y="323.557" style="clip-path:url(#SVGID_00000128483598931338965890000012255053648516296094_);" width="0.64" height="125.708"/>
				
					<rect x="489.974" y="323.557" style="clip-path:url(#SVGID_00000128483598931338965890000012255053648516296094_);" width="0.64" height="125.708"/>
				
					<rect x="489.335" y="323.557" style="clip-path:url(#SVGID_00000128483598931338965890000012255053648516296094_);" width="0.64" height="125.708"/>
				
					<rect x="488.695" y="323.557" style="clip-path:url(#SVGID_00000128483598931338965890000012255053648516296094_);" width="0.64" height="125.708"/>
				
					<rect x="235.113" y="323.557" style="clip-path:url(#SVGID_00000128483598931338965890000012255053648516296094_);" width="253.582" height="125.708"/>
			</g>
		</g>
		<g>
			<rect x="222.251" y="312.971" style="fill:#7FC5A3;" width="397.419" height="125.708"/>
		</g>
	</g>
	<g>
		<g>
			<path style="fill:#E5D1BD;" d="M248.294,308.559c-0.299,0.031-0.596,0.084-0.887,0.166c-2.719,0.771-3.285,3.537-5.42,4.858
				c-0.952,0.589-4.267,0.111-3.925,1.936c0.132,0.672,0.382,2.975,0.777,5.269c-0.379,1.899-0.673,3.819-1.229,5.674
				c-1.408,4.694-9.913,12.949-5.021,17.57c0.946,0.894,1.92,1.806,3.118,2.315c0.98,0.416,2.057,0.538,3.118,0.606
				c0.827,0.053,2.128,0.335,2.737-0.196c0.639-0.558,1.008-2.664,1.316-3.479c0.882-2.328,1.763-4.656,2.645-6.984
				c0.864-2.284,2.096-4.893,4.493-5.361c0.524-0.102,1.073-0.089,1.578-0.262c0.57-0.195,1.035-0.609,1.471-1.025
				c1.597-1.525,3.111-3.216,4.314-5.077c2.149-3.328-0.301-9.031-1.442-12.322c-0.284-0.819-0.605-1.659-1.217-2.274
				c-0.994-1-2.518-1.195-3.922-1.335C249.967,308.555,249.119,308.473,248.294,308.559z"/>
		</g>
		<g>
			<path style="fill:#FFFFFF;" d="M220.377,396.553c3.693-5.174,6.807-10.965,9.816-15.359c8.309-12.135,14.847-25.45,19.287-39.474
				c-5.947-4.196-12.732-7.199-19.837-8.779c-6.499,10.924-13.87,21.328-22.019,31.083c-2.401,2.874-7.132,9.297-11.462,5.936
				c-1.946-1.51-2.733-4.04-3.413-6.407c-1.281-4.456-2.563-8.913-3.844-13.37c-1.969-6.847-3.389-15.238-10.853-17.736
				c-7.918-2.65-15.555,2.256-18.893,9.461c-2.65,5.72-2.828,12.26-2.463,18.554c1.057,18.19,18.052,31.656,30.551,42.677
				c2.098,1.85,4.378,3.557,6.985,4.572C206.161,412.356,214.103,405.345,220.377,396.553z"/>
		</g>
	</g>
	<g>
		<g>
			<g id="XMLID_277_">
				<path style="fill:#F7F7F7;" d="M889.833,536.2c-1.949,0-3.882,0.071-5.798,0.2c-6.476-37.119-39.262-65.362-78.739-65.362
					c-18.054,0-34.707,5.909-48.086,15.87c-14.46-25.163-41.852-42.144-73.267-42.144c-46.484,0-84.167,37.173-84.167,83.029
					c0,2.906,0.153,5.777,0.448,8.606c-1.909-0.128-3.833-0.198-5.775-0.198c-46.484,0-84.167,37.173-84.167,83.029
					c0,45.856,37.683,83.029,84.167,83.029h295.385c46.484,0,84.167-37.173,84.167-83.029C974,573.373,936.317,536.2,889.833,536.2z
					"/>
			</g>
			<g style="opacity:0.3;">
				<path style="fill:#FFFFFF;" d="M718.098,463.168c-7.796-2.457-16.103-3.786-24.725-3.786c-44.856,0-81.218,35.871-81.218,80.12
					c0,2.804,0.147,5.574,0.432,8.304c-1.842-0.123-3.699-0.191-5.572-0.191c-44.856,0-81.219,35.871-81.219,80.12
					c0,14.533,3.927,28.158,10.787,39.906c-3.099-36.149,2.446-105.167,90.281-103.478
					C625.966,540.562,630.208,466.571,718.098,463.168z"/>
			</g>
			<g style="opacity:0.05;">
				<path style="fill:#3B455A;" d="M635.148,702.258h254.686c46.484,0,84.167-37.173,84.167-83.029
					c0-9.793-1.731-19.183-4.887-27.907C913.77,698.845,726.597,689.327,635.148,702.258z"/>
			</g>
		</g>
	</g>
	<g>
		<g id="XMLID_276_">
			<path style="fill:#A5A5A5;" d="M684.49,373.259v12.166c0,3.952,3.125,7.155,6.979,7.155h31.174c3.855,0,6.979-3.203,6.979-7.155
				v-12.166H684.49z"/>
		</g>
		<g>
			<path style="fill:#EBB044;" d="M782.646,209.906c0-42.8-33.843-77.497-75.591-77.497c-41.747,0-75.591,34.697-75.591,77.497
				c0,15.21,4.277,29.393,11.661,41.363h-0.003c21.034,36.134,25.895,66.399,25.895,66.399h38.038h38.038
				c0,0,4.861-30.265,25.895-66.399h-0.003C778.369,239.299,782.646,225.116,782.646,209.906z"/>
		</g>
		<g>
			<path style="fill:#D6D5D4;" d="M668.142,317.668v51.681c0,2.159,1.667,3.91,3.723,3.91h70.382c2.056,0,3.723-1.75,3.723-3.91
				v-51.681H668.142z"/>
		</g>
		<g style="opacity:0.1;">
			<path style="fill:#3B455A;" d="M781.303,195.396c-19.2,38.484-56.488,97.934-112.321,122.062
				c0.021,0.125,0.036,0.209,0.036,0.209h38.038h38.038c0,0,4.861-30.265,25.895-66.399h-0.003
				c7.384-11.97,11.661-26.153,11.661-41.363C782.646,204.945,782.173,200.099,781.303,195.396z"/>
		</g>
		<g>
			<g>
				<path style="opacity:0.4;fill:#FFFFFF;" d="M643.818,216.28c0-37.366,29.546-67.657,65.993-67.657
					c21.304,0,40.246,10.352,52.312,26.414c-11.396-20.282-32.754-33.936-57.224-33.936c-36.447,0-65.993,30.291-65.993,67.657
					c0,15.525,5.104,29.826,13.681,41.243C647.009,240.074,643.818,228.559,643.818,216.28z"/>
			</g>
		</g>
		<g>
			<g>
				<polygon style="fill:#F6F7F7;" points="692.357,317.668 683.199,218.468 695.959,229.346 707.092,211.264 718.375,228.769 
					730.92,218.375 721.755,317.668 725.659,317.668 735.659,209.324 719.259,222.913 707.018,203.922 695.036,223.379 
					678.442,209.23 688.452,317.668 				"/>
			</g>
		</g>
		<g>
			<g>
				<path style="fill:#EDECED;" d="M687.539,307.775l0.913,9.893h3.904l-1.128-12.22
					C690.009,306.239,688.78,307.016,687.539,307.775z"/>
			</g>
			<g>
				<path style="fill:#EDECED;" d="M725.528,276.785l-3.774,40.883h3.904l4.198-45.488
					C728.437,273.73,726.994,275.265,725.528,276.785z"/>
			</g>
		</g>
		<g>
			<g>
				<rect x="668.142" y="330.5" style="fill:#BAB9B9;" width="77.827" height="9.544"/>
			</g>
			<g>
				<rect x="668.142" y="350.882" style="fill:#BAB9B9;" width="77.827" height="9.544"/>
			</g>
		</g>
		<g>
			<g>
				<path style="fill:#B5B3B0;" d="M710.81,350.882h35.159v-10.838h-21.688C719.743,344.159,715.233,347.747,710.81,350.882z"/>
			</g>
			<g>
				<path style="fill:#B5B3B0;" d="M745.969,330.5v-12.832h-1.224c-3.576,4.663-7.193,8.93-10.822,12.832H745.969z"/>
			</g>
			<g>
				<path style="fill:#B5B3B0;" d="M671.865,373.259h70.382c2.056,0,3.723-1.75,3.723-3.91v-8.923h-50.818
					c-10.304,5.307-19.582,8.26-26.878,9.899C668.688,372.009,670.131,373.259,671.865,373.259z"/>
			</g>
			<g>
				<path style="fill:#73726F;" d="M724.281,340.044h21.688V330.5h-12.046C730.71,333.956,727.489,337.135,724.281,340.044z"/>
			</g>
			<g>
				<path style="fill:#73726F;" d="M695.151,360.426h50.818v-9.544H710.81C705.422,354.701,700.166,357.843,695.151,360.426z"/>
			</g>
		</g>
		<g>
			<path style="fill:#8C8A89;" d="M729.622,380.648c-8.778,8.665-25.592,11.286-31.148,11.932h24.169
				c3.855,0,6.979-3.203,6.979-7.155V380.648z"/>
		</g>
	</g>
	<g id="XMLID_273_">
		<g id="XMLID_275_">
			<g>
				<polygon style="fill:#EACDB0;" points="766.099,348.178 757.739,349.037 752.149,344.234 750.52,344.927 751.255,346.97 
					745.462,344.341 740.447,345.74 737.988,352.274 740.08,359.112 746.74,360.789 754.646,358.504 766.132,357.828 				"/>
			</g>
		</g>
		<g id="XMLID_274_">
			<g>
				<path style="fill:#474EBB;" d="M761.14,344.893c8.817-2.754,17.634-5.507,26.451-8.261c5.692-1.777,11.432-3.444,17.087-5.336
					c7.109-2.378,5.582-7.343,10.138-13.101c10.251-12.956,21.739-26.724,37.83-30.466c1.607-0.374,3.317-0.635,4.886-0.123
					c2.969,0.968,4.471,4.493,4.156,7.6s-2.008,5.881-3.68,8.519c-9.065,14.299-18.599,31.686-30.716,43.615
					c-5.447,5.363-17.247,5.225-24.789,6.527c-15.258,2.634-30.517,5.269-45.775,7.904L761.14,344.893z"/>
			</g>
		</g>
	</g>
</g>
</svg>
